<?xml version="1.0" encoding="utf-8"?>
<!-- Generator: Adobe Illustrator 22.0.0, SVG Export Plug-In . SVG Version: 6.00 Build 0)  -->
<svg version="1.1" xmlns="http://www.w3.org/2000/svg" xmlns:xlink="http://www.w3.org/1999/xlink" x="0px" y="0px"
	 viewBox="0 0 1920 1080" style="enable-background:new 0 0 1920 1080;" xml:space="preserve">
<style type="text/css">
	.st0{fill:#F5F5F5;}
	.st1{fill:#F15453;}
	.st2{fill:#F15554;}
	.st3{fill:#F15555;}
	.st4{fill:#F05655;}
	.st5{fill:#F15656;}
	.st6{fill:#EF5959;}
	.st7{fill:#DA7879;}
	.st8{fill:#E16B6B;}
	.st9{fill:#F2F1AE;}
	.st10{fill:#F2F1AF;}
	.st11{fill:#F3F2AF;}
	.st12{fill:#F5F5B6;}
	.st13{fill:#F3F2B0;}
	.st14{fill:#D78BD6;}
	.st15{fill:#D78CD6;}
	.st16{fill:#DD91DC;}
	.st17{fill:#E999E9;}
	.st18{fill:#E494E4;}
	.st19{fill:#88DA88;}
	.st20{fill:#89DA89;}
	.st21{fill:#8ADA8A;}
	.st22{fill:#8EDC8D;}
	.st23{fill:#8CDC8C;}
	.st24{fill:#90DE90;}
	.st25{fill:#F6AD8A;}
</style>
<g id="_x31_">
	<g>
		<g>
			<path class="st0" d="M783.2,580c-0.5,0-0.9-0.1-1.4-0.1c-2.6,0.6-5.8,0.8-1.5,4.2c3.9,3.1,7.1,6.9,10.7,10.5
				c1.6,1.6,2,3.3,0.5,5.3c-1.9,2.5-3.1,5.5-4.4,8.4c-1.5,3.4-3.6,4.1-6.7,2.2c-1-0.6-2.1-1-3.1-1.6c-1.5-0.8-2.3-0.3-3.2,1.1
				c-1,1.7,0,2.2,1.2,3c6.3,3.8,12.6,7.3,19,10.9c1.3,0.7,2.7,1.4,3.5,2.7c0.6,0.6,1.3,1,1.9,1.6c1.2,1,2.3,2.2,1.4,3.8
				c-1,2-2.8,1.5-4.3,0.8c-5.5-2.6-10.9-5.4-16.4-8.1c-1.5-0.7-2.9-1.5-4.6-1.7c-2.8-0.8-5.6-1.8-8.1-3.4c-0.9-0.3-1.4-1-1.6-1.8
				c-1-4.7-3.9-5.5-8-4.3c-1.6,0.1-3.2-0.1-4.8,0.1c-1.2,0.1-1.1,0.8-0.6,1.6c13.5,8.2,26.9,16.6,40.3,24.8c1.5,0.9,3.6,1.6,3.2,4.4
				c-0.7,4.9-2.5,5.9-6.8,3.6c-6.7-3.6-13.3-7.6-20-11.2c-8.3-3.1-16.9-5.3-25.7-6.5c-4.5-1-8.9-2.2-13.4-3.3
				c-5.5-1.4-5.5-1.5-6.2,4.2c1.3,1.7,3.3,2.4,5.2,2.3c5.5-0.5,9.3,1.3,10.6,7c2.3,1.3,5,1.9,7.3,3.2c2.1,1.1,3.5,1.4,4.8-1.2
				c1.5-3.1,3.5-1.7,5,0c1,1.1,1.5,2.6,1.8,4.1c0.9,4.8,2,9.4,6.2,12.5c1.7,1.3,1.2,3.1,0.5,5c-3.6,9.3-17.3,16.6-27.5,14.2
				c-3.3-0.8-7-0.5-9.9-2.7c-3.4,0-6.9,0-10.3,0c-2.3-0.3-2.8-2.7-4.2-3.9c-1.9,0-3.8-0.3-5.7,0.3c-0.2,0.1-0.7,0-0.5,0.3
				c0.3,0.3,0.8,0.5,1.1,0.9c1.1,1.3,2.5,2.6,0.3,4c-3,1.9-5.1,4.6-7.6,7c-1.7,1.7-3.9,3.1-6,3.1c-4.3,0-8.4,1.3-12.7,1.3
				c-4.5,0.4-9.2-0.9-13.6,0.8c-2.7,0.6-5.5,1.3-8.2,1.9c-2.4,0.1-5,1-6.6-1.7c-1.3-2.2-1-4.3,0.7-6.3c0-0.8,0-1.6,0-2.4
				c-1-2.1-0.1-3.6,1.3-5.2c2.4-2.6,4.9-5.1,5.7-8.8c0-0.3,0-0.6,0-0.9c1.2-3.5,1.7-7.5,7-7.2c1.4,0.1,2.4-1.3,3-2.4
				c1.2-2.2,3.1-3.8,4.8-5.6c1.7-1.7,4.3-3.2,0.4-5.6c-1.8-1.2-0.1-2.6,0.9-3.7c1.5-1.7,1.9-4.9,5.5-3.8c1.3,0.4,2.9,2.6,3.9-0.3
				c-0.1-6.6,1.6-12.6,5.7-17.9c6.7-8.7,12.5-18,14.8-28.9c1.1-5.4,2.5-10.4,5.8-14.8c0.3-0.4,0.4-0.9,0.4-1.4
				c-0.5-7.7,4.5-15.2,12-18c3.7-1.4,5.9-4.6,7.3-7.8c1.3-2.8-2.1-4-3.8-5.7c-1-1.6-1.4-3.2-1.2-5.2c0.4-3,0.2-5.9-1.4-8.7
				c-1.3-2.3-0.8-4.5,0.9-6.4c0.3-0.6,0.7-1.3,0.4-1.9c-2.3-4.6,0.7-6.6,4.1-8.5c3.7-2.1,8.1-3,11.1-6.3c3.7-4.8,1.6-10.6,2.3-15.9
				c0.7-5.2,0.8-10.5,2.6-15.6c3.7-8.4,10.8-12.9,18.5-17c2.8-1.5,5.6-2.9,8.4-4.2c6-2.9,10.9-6.7,12.1-13.8c0-2.5,0-5,0-7.5
				c-1.1-2.6-2.9-4.7-4.9-6.6c-2.6-3.3-6-3.1-9.5-2.1c-3.5,1-7,2-10.7,2c-3.5,0-4.6-1.6-4.6-4.9c0-3.7,1.4-7.2,1-10.9
				c0.9-6.1,3.7-11.6,5.4-17.4c2.5-4.1,2.1-8.4,1.3-12.8c-0.2-1.1-0.6-2.3-1.1-3.3c-3.5-7.4-4.2-14.9-0.9-22.5c0.9-5,5.4-7.4,8.1-11
				c3.8-5.1,8.5-9.6,12.1-15c1.6-2.4,4.4-2.5,7.1-2.7c1-0.1,2.1,0.2,2.6-0.9c0.7-1.4-0.5-2.1-1.3-2.9c-1.3-1.5-3-2.6-4.9-3.2
				c-0.9-0.2-1.6-0.5-1.6-1.5c0-1,0.7-1.6,1.6-1.4c1.7,0.3,3-1.8,4.7-0.6c1-0.3,2.1-0.7,3.1-1c2.6-0.6,4.1-2.5,5.6-4.5
				c3.4-4.6,6.6-9.4,11.3-12.8c2.4-1.7,4.9-3.2,8-2.7c0.8-0.3,1.5-0.6,2.3-0.9c1.6,1.1,3.2-1.1,4.8-0.2c8.5,0,16.9-0.2,25.3-1.5
				c3.2-0.5,6.1-1.7,8.6-3.6c6.7-6,8.9-14.3,10.4-22.6c0.8-4.1-2.4-7.5-4.6-10.7c-2.6-3.8-4.4-7.7-4.8-12.3c0-0.8,0-1.6,0-2.4
				c-1-1.9,0.4-3.2,1.3-4.4c2.4-3.4,4.4-7.1,7.2-10.1c3.6-3.8,2.9-7.3,0.9-11.2c-0.7-1.5-2.5-2.9-1.4-5c0-1.1,0-2.1,0-3.2
				c-0.6-0.7-0.7-1.6-0.3-2.3c2.8-4.8,1.3-9.8,0.9-14.8c-0.9-2.2-1.4-4.9-4.6-4.8c-3.5,6.8-5.1,13.6-2.5,21.3
				c1.2,3.6,2.9,7.3,2.1,11.4c0,0.1,0.1,0.2,0.1,0.2c0.3,0,0.7-0.1,1-0.2c2,3,0.8,5.7-1.1,8.1c-1.8,2.2-3.8,4.2-6,6
				c-4.9,4-5.7,6-3.8,11.9c2.3,7.1,5.2,13.9,8.8,20.5c0,1.8,0,3.7,0,5.5c-0.6,2.6-1.7,5-2.4,7.5c-1,3.9-3.3,6.3-7.2,7.3
				c-3.6,0.5-7.3-1-10.9,0.8c-1.5,1.3-3.3,0.6-5,0.7c-2.2-1-4.5-0.3-6.8-0.5c-8.6,1.3-17.4,1.5-24.8,6.9c-2.6,1.9-4.5,4.4-5.9,7.2
				c-2.9,5.3-7.1,9-12.6,11.4c-1.2,0.7-2.6,1.1-4,0.9c-3.8-3.2-5.8-0.1-7.3,2.6c-1.6,2.8-2.6,6-3.1,9.3c-1.2,7.7-4.2,14.4-9.7,20.1
				c-5.7,5.9-8.8,13.4-11.2,21.2c0.2,2.3-0.9,4.8,0.7,6.9c0.5,4.4,3.2,8.5,1.8,13.2c1.8,2.6,2.6,5.4,1.6,8.5
				c-1.3,6.3-3.7,12.3-6.1,18.1c-3.7,8.8-2.2,16,4.2,22.6c4.6,3.2,9.9,1.2,14.8,1.6c2.5,0.2,4.9,0.1,7.3,1c4.1,1.5,4.8,4.2,1.9,7.5
				c-1.2,1.4-2.5,2.6-3.8,3.9c-2.1,2.8-5.5,3.3-8.4,3.8c-13,2.3-21.3,10.4-27.6,21.3c-2.8,4.8-4.6,9.8-4.5,15.5
				c0,1.2-0.2,2.3-1.4,2.9c0.9,2.4,1.8,4.7,0.1,7.1c-1.6,1.3-0.2,3.1-0.8,4.5c-1.7,2.6-4,3.1-6.7,2c-1.7-0.1-3.3,0-5,0
				c-3.6,1.2-6.1,4.2-9.4,5.9c-3.5,0.6-5.3-1.1-6.2-4.2c-0.5-1.9-0.8-3.9-1.4-5.8c-0.5-1.7-0.6-4-2.8-4.3c-2.1-0.3-3.1,1.5-3.9,3.2
				c-0.2,0.5-0.4,0.9-0.7,1.4c-2,9.1-3.5,18.2-0.5,27.5c1.8,5.6,2,11.4,1.4,17.2c-1.3,13-7.7,23.4-16,33c-0.8,0.9-1.4,1.8-2.2,2.7
				c-0.7,0.3-1.4,0.6-2.1,0.9c-6.1-10.8-12.4-21.3-25.7-24.7c-3-0.8-5.8-2.6-8.5-4.2c-3.1-1.8-4.9-0.2-6,2.2c-1.3,2.7,1.5,2.8,3,3.4
				c6.5,3,13.2,5.4,19.5,8.7c5.5,2.9,6.5,8.8,9.1,13.6c0.4,0.7-0.5,1.5-0.9,2.2c-3.1,4.7-6.3,9.4-9.2,14.2c-1.9,3.2-3.8,2-5.6,0.6
				c-5.2-4.1-10.8-7.7-16-11.8c-1.7-1.4-3.5-2.5-5.3-3.6c-1.5-1-2.8-3.2-4.8-0.5c-1.5,2.1-3.2,4,0,6.1c10.7,8,21.4,16.1,32.1,24.2
				c2,1.5,2.7,3.4,1,5.6c-3.8,5-7.4,10.2-11.1,15.3c-1.6,2.3-3.4,3-5.9,1.9c-0.6-0.3-1.2-0.4-1.9-0.5c-6.3-1-6.4-1.1-9.2,4.9
				c-2,4.2-4.7,8-7.4,11.8c-2,2.9-4.2,3.6-7.4,1.2c-5.8-4.4-11.6-8.8-17.7-12.9c-1-0.6-1.9-1.4-2.9-1.9c-1.3-0.6-2.3-0.1-3,0.9
				c-0.9,1.3,0,2.1,1,2.8c5.9,4.3,11.7,8.8,17.7,12.7c3.1,2,4.5,4.2,3.2,7.8c0,0.4,0,0.8,0,1.1c-2.6,2.3-4.8,4.7-6,8.2
				c-1.7,5-6.7,7.3-12.9,6.8c-0.4,0.4-0.8,0.8-1.2,1.1c-1.5,0.4-2.7,1.1-3.8,2.2c-2.7,2.5-6,4.1-9.7,4.8
				c-10.2,2.1-16.6,9.2-21.8,17.4c-3.3,5.2-6.4,10.5-11.2,14.4c-1.1,0.9-1.6,1.8-2.2,3.1c-2.8,6-4.6,12.4-8.1,18c0,0.7,0,1.4,0,2.1
				c0.2,2.9,2.7,4.9,3.2,7.7c-1.2,8.3-1.2,16.7-1.6,25c-0.2,4.1-1.3,8.2-0.3,12.4c-0.5,4.8,3.8,6,6.3,8.6c3.2,6.3,1.4,12-1.9,17.6
				c-3.8-0.4-5.9-4-9.4-5c-1.4-0.4-2.7-1.7-4,0c-1.4,1.8,0.3,2.7,1.3,3.7c1.5,1.6,3,3.1,4.6,4.5c4.3,3.7,4.6,6.8,0.7,10.9
				c-3.6,3.8-5.6,8.1-5.5,13.3c-1.3,1.9-1.1,3.9-0.4,6c-0.6,2.4-1.1,4.8-1.7,7.1c-1.2,3.6-1.1,7.2-0.1,10.8c0,3.1,1,6.2-0.2,9.2
				c-0.7,0.3-1.5,0.5-2.2,0.8c-1-0.6-1.9-1.7-3.1-1.2c-1.7,0.7-0.3,2-0.2,3c0.2,2.5,0,5,0.1,7.5c0.3,2.4-0.4,4.5-1.6,6.6
				c-1.5,2.8-3,5.5-4.2,8.4c-2.6,6.4-2.8,6.5-8.8,3.6c-4-1.9-7.8-4.3-11.7-6.3c-1.4-1.3-3.2-0.9-4.9-0.9c-7.4,5-14.8,10-22.4,14.7
				c-1.5,0.9-3.1,2-5,2.2c-6,0.7-10.6,3.6-13.5,8.9c-2.5,6.2-3.8,12.3-3.1,19.3c0.6,6.5-0.3,13.2,0.2,19.8c0.8,8.7,2.2,17.4,5,25.8
				c0.8,2.4,1.4,4.8,1.6,7.3c-1.1,5.1-5.4,7.4-9.1,10.1c-2.3-0.4-2.2-2.2-2.3-3.8c-0.2-2.3-0.1-4.7-0.1-7c0-130.4,0-260.9,0-391.3
				c0-158.7,0-317.4,0-476.2c0-3.5,0.5-7-0.9-10.4c-0.3-36.3-0.1-72.7-0.1-109c1.9-2.3,4.7-2,7.3-2.4c1.7-0.2,3.5,0.5,5.2-0.5
				c189.7,0,379.3,0,569,0c5.3,1.2,10.8,0.2,16.1,0.5c3.3,0.3,6.6-0.4,9.9,0.2c2.5,1.3,5.2,0.8,7.8,0.8c1.9,0,3,0.7,2.5,2.6
				c-1.4,5.7-1.2,11.8-4.3,17.1c-3,5-4.3,10.7-5.6,16.3c-0.8,3.5-1.6,7.1-2.5,10.6c-5,14.6-11.6,28.6-16.5,43.2
				c-5.6,17.1-12,33.8-18.9,50.4c-0.8,1.8-2.2,3.3-2.6,5.3c0,0.7,0,1.5,0,2.2c0.9,3.3,0.5,5.4-3.5,6.7c-4.5,1.5-4,6.5-5,10.2
				c-0.9,3.4-5.6,17.4-7.6,20.2c-1.5,2-2.6,4.2-3.5,6.6c-0.7,2.4-1.4,4.8-4.7,4.8c-1.2,0-2.4,0.9-2.7,2c-1.5,5-4.5,9.5-4.7,14.8
				c3.1,2,3.1,4.5,2,7.7c-2.6,7.5-5.7,14.9-7.2,22.8c-0.4,2.9-3.1,4.1-4.8,6.1c-2.5,3-5.4,5.3-5.3,10c0.1,3-3.6,4.4-5.5,6.7
				c-1.3,1.6-4.8,2.6-0.8,5.5c1.4,1,0.2,3.7-1.8,4.3c-3.8,1.1-4.5,3.4-3.4,6.9c-1.8,0.6-3.8-0.6-5.5,0.8c-4.2,7.2-7.8,14.6-12,21.7
				c-0.7,1.2-1.3,2.2,0.2,3.8c2.4,2.9,0.4,6.7-3.4,7c-0.5,0-1.1-0.2-1.4,0.2c-3.5,4-7.2,8.4-7.9,13.4c-0.4,2.8-1,5.3-2.2,7.6
				c-2.7,5.1-5.8,10.1-8.5,15.2c-1.4,2.6-2.3,5.6-6.7,5.3c-2.7-0.2-5.1,5.5-3.6,8c1.3,2.1,0.2,3.2-1,4.2c-3.4,2.9-4.8,7.1-7.4,10.5
				c-1.7,2.3,0.2,4.7-0.6,7.2c-1.2,3.7-4.9,5.3-6,8.8c-1.4,4.4-2.5,8.9-4,13.2c-0.6,1.9-1.4,2-2.8,1.1c-4.1,0.3-4,2.5-2.5,5.4
				c4.1,2.9,2.6,7,2.2,10.8c-0.3,2.5-1.4,5.1,0.3,7.5c3.9,1.5,2.2,4.9,2.6,7.6c0,0.6,0.3,1.7-0.1,1.9c-4.4,2.9-3.2,8.3-5.4,12.1
				c0.6,1.4,1.2,2.8,0.9,4.3c-1.3,1.3-0.3,3-0.8,4.4c0.1,4-1.6,7.6-2.3,11.4c-0.6,3.5-4.6,3.3-6.3,5.6c-1.5,2.1-1.6,3.6,1.5,4.1
				c1.3,0.2,2.5,0.7,3.8,1c0.9,1,1.1,2.3,0.1,3.1c-1.7,1.3-3.3-0.2-4.9-0.9c-1.9,1.1-1.5,3.5-2.8,5c-1.3,1.3,0.1,1.3,0.7,1.4
				c1.3,0.2,2.6,0.1,2.4,2c-0.2,0.5-0.4,1-0.8,1.2c-5.1,1.8-3,4.7-1.2,7.5c0,0.3-0.1,0.7-0.2,1c-3.6,9.8-3.6,9.8-13.9,9.9
				c-0.5,0.1-1,0.2-1.5,0.3c-1.6-0.4-3.4-0.2-4.8-1.3c-1,0.3-2.1,0.6-3.1,0.9c-0.5-0.5-1.2-0.5-1.8-0.5c-1.5,0-3.1-2.2-4.3-0.1
				c-1.1,1.8,0.5,3.3,1.6,4.7c2.2,1.2,4.3,2.6,6.8,3c0.5,1-0.3,2.2,0.7,3.1c1.9,1.9,2,3.7,0.5,6.1c-2.4,4-5.1,7.7-7.3,11.8
				c-0.9,1.6-1.5,3.9-4.9,2.8c-2-0.6-4.8,1.1-2.7,4.2c1.5,2.3-0.4,3.4-1.2,4.8c-0.8,1.5-2.1,1.6-3.9,0.9c-1.8-0.7-7,2.3-7.6,4
				c-0.3,0.8-0.1,1.4,0.5,1.7c3.3,1.6,2.1,3.5,0.4,5.4c-2.3,2.6-3.2-1.1-4.9-1.1c-0.6-1.5,0.4-3.3-0.9-4.6c-1.4-1.6-3.5-2.8-4.3-4.8
				c-1.6-4.4-5.4-2.2-8-2.5c-2.2-0.2-4.2,2.2-4.2,5c1.1,0.9,2.6,0.1,3.8,0.8c2.8,2.8,2.1,4.6-1.6,5.5c-2.6,0.6-4.3,2.1-5.1,4.6
				c0,3.6,0,7.2,0,10.8c0,3.5-1.4,2.5-3.1,1.1C789.4,584.5,787.7,580.4,783.2,580z"/>
		</g>
	</g>
</g>
<g id="_x32_">
	<g>
		<g>
			<path class="st0" d="M1119,7c0.6-1.8-2.2-1.1-2-3c2.2,0,4.5,0,6.8,0c87.7,0,175.4,0,263.1,0c2.1,0,4.4-0.9,6.2,1
				c-2.6,5.7-6.5,10.7-9.7,16.1c-2.4,4-1.7,5.5,2.8,5.3c1.9-0.1,2,0.9,1.8,2c-0.2,1.3-0.5,2.6-1.1,3.8c-1.8,4.2-0.3,6.3,4,6.9
				c0.8,0.1,1.5,0.6,2.7,1.2c-2.2,2.5-3.1,5.4-3.4,8.4c-0.3,2.6-0.8,4.1-4,4.5c-4.7,0.5-0.5,3.9-1.5,6c-4.8-0.6-6.5,2.6-6.6,6.4
				c-0.1,5.3-4.1,6.1-7.5,7.2c-2.8,0.9-3.3-1.9-2.1-3.3c5.5-6.1,7.1-13.6,9-21.1c0.3-1.3,2.3-2.5,0.4-3.8c-1.6-1-3.4-0.9-5.2,0.2
				c-2.8,1.7-2.7,4.8-3.6,7.3c0,1.6,0.1,3.3,0.1,4.9c-3,4.9-6,9.8-9,14.7c-1,1.5-1.4,3.4-3.6,0.3c-2.1-2.9-3.8,1-5.2,2.3
				c-3,2.7-0.2,3.8,2.1,5.3c-2.7,0.9-4.9,1.7-4.2,5.3c0.3,1.6-0.5,3.3-3.4,1.6c-3.8-2.2-8.7-1.3-12.9-3.3c-4.4-2.1-9.5-2.6-13.8-5.1
				c-12-4.2-24-8.4-36.2-11.9c-1.9,2.5-4.1,2.6-7,1.5c-6.1-2.5-12.3-4.8-18.5-6.9c-5.9-2-4.9-7.4-6.4-11.6c2.8-3.6-1.1-6-1.6-9
				c-0.6-3.1-0.9-6.9-5.9-6c-0.8,0.2-1.6,0-2.2-0.8c-3.1-4.7-7.4-6.8-13.1-6.5c-2.6,0.1-1.4-1.8-0.9-3.2c0.5-1.4,3.5-1.9,1.6-4.2
				c-1.7,0-3.6-0.9-5,0.8c-2.2,2.4-7.3,12.1-7.9,15.2c-0.8,4-6.7,7.3-10.6,5.7c-26.4-10.3-52.8-20.5-79.2-30.9
				C1123.8,9.1,1121.1,8.8,1119,7z"/>
		</g>
	</g>
</g>
<g id="_x33_">
	<g>
		<g>
			<path class="st0" d="M1522,212.1c0-0.9-0.2-1.7-1.1-2.1c-2.6-3.3-5.1-6.7-9.2-8.4c-0.4,0-0.7,0.2-1,0.4c1.1,6.3,0.2,8.1-5.7,11
				c-1.1,0.3-2.1,0.6-3.2,0.9c-0.7-2.2-1.7-4.3-2.3-6.6c-1.9-6.6-4.5-7.7-10.9-4.9c-3.6,1.6-7.1,3-10.8,0.6c-3-1.9-6-4.2-10-3
				c-1.8,0.5-2.5-0.3-2.5-2c-0.1-2.5-1.1-4.4-2.9-6c-1.3-1.6-3.1-2.7-4-4.6c-1.7-3.4-4.9-5.4-7.3-8.1c-1-1.2-2.8-2.3-2.1-4.2
				c0.7-1.8,2.7-1.6,4.3-2.1c1.2-0.4,2.7,0.7,3.5-0.9c4.9-2.4,8.2-6.4,11.3-10.7c1.8-4.2-0.1-8.1-1.2-12c-1.7-5.8-4.1-11.4-5.1-17.4
				c3.2-1.3,5.8,0,8.4,0.9c6.1,2.3,11.3,0.6,14.6-5.1c1.1-1.9,1.8-4,4.4-4.3c2.1,0,4.2,0,6.3,0c12.6,6.9,26.1,11.4,39.2,16.9
				c1,0.4,1.7,0.9,2.5,1.6c7.9,1.9,9,7.2,8.9,14.6c-0.3,68.8-0.2,137.6-0.1,206.3c0,0.3,0,0.6,0,1c0,0.4,0,0.7,0,1.1
				c0.9,1.7,0.5,3.6,0.5,5.4c0,67.5,0,135,0,202.5c0,39.9,0,79.8,0,119.7c0,1.8-0.5,3.7,0.5,5.4c0,30.3,0,60.6,0,90.8
				c0,1.7,0.7,3.7-1,5.2c-4-2.2-3.3-6-3-9.5c0.1-1.9,1.3-3.8-0.4-5.6c-4.9-5-8.5-10.7-9.8-17.7c-0.4-2,0.2-3.6,1.1-5.2
				c0.5-1,1.6-2.1,0.3-3c-1.3-1-2.8-0.6-4.1,0.5c-1.7,1.5-2.2,4.2-4.7,5c-1.8,1.5-0.6,3.6-0.9,5.4c0,2.1-0.7,3.9-2.5,5.1
				c-1.2,0.7-2.5,1.1-4,1c-3.2,1.7-0.9,6.4-4.4,8.2c-1,0.5-1.6,2-2.7,2.7c-2.2,1.4-2.6,3.2-1.8,6c1.1,4.1,1.8,8.4,4.4,12
				c0.6,0.8,0.9,1.7,0.5,2.8c-0.4,1-1.2,2.4,0.3,3c1.4,0.5,2.7-0.5,3.2-1.8c1.5-3.6,3.8-4.1,7.5-3.5c3.1,0.5,3.5,2.5,4.3,4.6
				c0.8,2.2,1.2,4.9,4.7,4.2c0.9-0.5,1.1-1.3,1.1-2.3c-0.5-0.7-1.2-1.4-1.2-2.1c0-1.7-2.6-3.6-0.3-4.8c1.9-1,4.6-1.1,6.5,0.7
				c3.7,3.3,7.9,6.4,7,12.3c0,3.8-0.1,7.5,0.1,11.3c0.2,3.2-1.2,4.1-4.1,3.8c-2.2,1.3-4.7-0.3-6.9,1c-0.7,0-1.4,0-2.1,0
				c-1.5,1.2-3.5-0.2-5,1c-1,0-2,0-3,0c-2.3,0.8-4.7,0.8-7,0c-2.6,0.3-4.7-1-7-2c-2.5-1.2-5.4-1.3-8-2l0,0c-2.5-1.4-5.5,0.3-8-1l0,0
				c-3.2-1.5-6.8,0.4-10.1-1c-0.3,0-0.7,0-1,0c-4.3-1.3-8.8-0.1-13.3-1.3c-3.1-0.8-7.1-0.8-7.8-4.1c-0.9-4.1-1.9-9,2.4-12.5
				c0.4-1.6,0.1-3.2,0.3-4.8c2.5-3.6,6.9-4.5,10.2-6.9c1.1-0.8,2.9-1,2.8-3.1c-0.1-1,0.3-2.1-0.8-2.7c-0.9-0.5-1.7-0.1-2.3,0.5
				c-1.6,1.5-3.2,3-5.7,1.6c-0.8-0.4-1.6,0.4-2.1,1c-2.1,2.7-5.1,4.2-8,5.8c-4.2,2.4-6.7,5.2-5.2,10.5c0.9,3.2,0.6,6.7,1.3,9.8
				c0.7,3.1,0,5-1.7,7.1c-2.3,1.6-4.3,1.5-6-1c-0.4-1.6-2.9-2.2-1.8-4.4c3,0.1,4.2-1.2,2.9-4.1c-0.6-1.4-0.5-2.8-0.5-4.2
				c-0.1-2.4,0.2-4.8,0.1-7.2c2.6-5,0.1-8.5-3.6-11.6c-1.8-2.1-4.5-3.5-5.1-6.5c0-0.9-0.3-1.7-1.2-2.1c-0.5-1.8-1.4-3.4-2.1-5
				c-2.4-5.1-6.6-6.6-11.8-4.1c-7.6,3.7-7.6,3.7-15.7,0.6c3.4-0.8,5.7-2.6,8.3-3.8c3.9-1.8,0.4-3.3-0.2-4.8c-0.7-1.9-1.7-3.5-4-1.5
				c-1.8,1.7-3.4,3.5-6.3,3.3c-4.5-0.4-9.1-1.3-12.9-3.2c-2.9-1.5,0.3-4.7,1.7-5.6c2.2-1.4,3.5-3.3,4.9-5.1c3.4,0.6,5.9-0.5,8.1-3.4
				c3.1-4,6.6-7.5,11.8-9.4c5.1-1.9,10.1-4.4,14.1-8.6c1.6-1.6,1.4-2.5,0.7-4.1c-2.3-5.3-2.1-5.9,3-9.4c2.5,1.6-0.2,5,2.3,6.5
				c5.8,2,11.2-0.7,15.2-3.6c4.7-3.3,9.4-4.9,14.8-5.1c2.4-2,4.7-4.2,5.4-7.4c-1,0-2.1-0.1-3.1-0.1c-6.5,2.2-13.3,3.6-18.6,8.7
				c-3.4,3.3-5.5,2.2-5.8-2.5c-0.3-4.5-4-4.1-7-5.4c1.9-2.4,1-6.3,5.7-7c2.2-0.3,1.4-2.8,0.6-4.6c-2.3-5.1-2.1-5.6,3.2-7.5
				c7.2-2.5,14.1-5.6,21.6-7.2c3.4-0.7,2.7-2.7,1.7-4.8c-3.2-1.9-5.1-3.9-0.3-6.3c1.3-0.7,1.7-2,1.1-3.4c-1.4-3.5-1.3-7.1-1-10.7
				c0-0.1-0.1-0.2-0.1-0.2c-0.1,0.1-0.3,0.2-0.4,0.3c-0.5-0.1-0.9-0.3-1.1-0.7c-0.7-2.2-1.6-4.3-2.6-6.3c-1.3-2.6-2.8-5-0.5-8
				c1.9-2.6-2.4-5-0.9-7.8c0-1.8,0-3.6,0-5.5c0.1-2.1-0.4-4.3,0.9-6.3c0.1-2.4,0-4.8,0.1-7.3c0.5-3.5,2.2-6.5,3.2-9.8
				c1.2-6-0.3-11.9-0.2-17.9c0.1-0.6,0.2-1.1,0.3-1.7c0.1-19.6,0.5-39.1-0.4-58.7c-0.2-5.5-2.1-10.7-4.1-15.8
				c-1.9-3.9-2.4-8.2-3.8-12.2c-1.1-3-0.1-4.9,2.8-6.4c6.1-3.1,12.8-4.6,19.1-7.1c2.1-0.9,4.3-1.7,6.5-2.4c2.1-0.1,4.2,0,6.3,0
				c5.7-1.1,8.8-4.6,11.3-9.7c3.4-7,7-14,10.9-20.7c1-1.8,1.2-3.4,0.6-5.2c-0.6-1.6-1-3.1-0.2-4.8c0.5-3-3-5-2-8.1
				c0.7-2.4,0.9-4.7-0.1-7c-0.3-0.4-0.6-0.7-0.9-1.1c0.7-2.6,0.9-5.2-0.2-7.7c-3.8-5.9-9.9-9.1-15.1-13.5
				c-10.4-8.9-21.1-17.6-31.8-26.2c-11.8-9.6-23.3-19.6-35.4-28.8c-3.5-2.7-4.5-6.9-7.8-9.4c-7-5.3-10.1-12.3-10.3-20.9
				c-0.3-1.8,0.7-3.7-0.6-5.4c-0.8-0.5-0.9-1.2-0.9-2.1c0.5-1.7,1.3-3.4-0.3-4.9c-0.9-0.9-0.7-2.1-0.7-3.2c0.9-1.8,0.3-3.7,0.4-5.5
				c-1.2-2.9-2.1-5.6-6.1-6.2c-2.5-0.3-3.9-3.3-5.4-5.5c-2.2-3-4.8-5.8-5.9-9.5c0-0.9-0.2-1.7-1.1-2.2c-0.4-0.6-0.3-1.3-0.6-1.9
				c-4.6-8.2-2.9-13.8,5.6-18.2c1.5-0.8,3-1.3,4.6-1.8c10.3-3.2,14.6-13.2,10.2-23.4c-1.5-3.6-4-6.5-6.1-9.6c-2.9-4.3-2.7-6.2,1-10
				c1.9-1.9,3.8-3.6,4.5-6.4c0.7-2.4,2.1-2.2,3.3-0.2c0.7,1.1,0.9,2.5,1.4,3.7c1,2.3,2.4,3.9,5.3,4.5c5.7,1.1,10.3,4.2,13.6,9.2
				c2.8,4.3,6.9,7.1,12.1,8c1.5-0.3,2.9-0.6,4.4-0.9c1.5,1,1.9,2.7,2.6,4.2c1.7,3.6,4.2,5.9,8.6,5.3c5.4-0.8,7.2,4,10.2,6.9
				c1.4,1.3,2.6,3,3.3,4.9c2.1,9.5,6.1,18.5,5.2,28.6c-0.3,3.2,1.3,6.4,2.4,9.5c2.3,5.1,3.3,10.7,6.1,15.6c0.9,1.6,1.4,3.4,2.7,4.8
				c0.7,0.8,1.7,1,2.7,0.7c0.9-0.3,1.8-1.3,1.4-1.8c-3-3.5,0.2-8-2-11.5c-2.1-4.7-0.9-9.4,0-14.1c1-4.9,3-9.5,3.3-14.5
				c1.3-6,1.3-5.9,6.7-3.9c2.2,0.8,3.9,0.7,4.1-2.3c0.1-1.3,0-2.6,0.3-3.9c0.4-6.7-1.6-13.1-2.8-19.5c-0.5-2.8-1.1-5.5-1.2-8.3
				C1513.8,223.6,1516.5,217.1,1522,212.1z"/>
			<path class="st0" d="M1547,836c0,4.7,0,9.3,0,14c-4,0.8-8,0.8-12,0c-2.7,0-5.3,0-8,0c-3,0.8-6,0.8-9,0c-0.3,0-0.7,0-1,0
				c-2.9-1.4-6.1,0.3-9-1c-2,0-4,0-6,0c-1.8-1.3-4.1,0.3-6-1c-0.7,0-1.3,0-2,0c-2.5-1.4-5.5,0.3-8-1c-0.3,0-0.7,0-1,0
				c-1.5-1.2-3.5,0.2-5-1c-0.7,0-1.3,0-2,0c-3.3-0.8-6.7-0.8-10,0c-3.4-0.3-6.8,0.8-10-1c-6.3-0.8-12.6-0.8-18.9,0c-0.3,0-0.7,0-1,0
				c-1.5,1.2-3.5-0.2-5,1c-3.3,1.5-6.6,2.5-10.1,3.2c-1.2,0.2-2.6,1.5-3.5-0.1c-0.9-1.7-0.2-3.2,1.5-4.1c3.1-1.9,5.1-5.1,8.1-7.1
				c1.7-2.2,4.2,1.2,5.9-0.9c1.3-0.7,2.4-1.8,3.1-3.1c1.7-4.3,5.4-4,9-3.9c2.5,1.4,5.5-0.3,8,1c0.7,0,1.3,0,2,0c1.5,1.2,3.5-0.2,5,1
				c0.7,0,1.3,0,2,0c1.5,1.2,3.5-0.2,5,1c0.7,0,1.3,0,2,0c1.8,1.3,4.1-0.3,6,1c0.7,0,1.3,0,2,0c1.8,1.3,4.1-0.3,6,1c1.3,0,2.7,0,4,0
				c2.9,1.4,6.1-0.3,9,1c1.7,0,3.3,0,5,0c4.6,1.4,9.4-0.4,14,1c1.3,0,2.6,0,4,0c4.2-1.1,8.5-0.2,12.7-0.5c1.8-0.1,3.6,0.5,5.3-0.5
				C1541.7,836,1544.3,836,1547,836z"/>
		</g>
	</g>
</g>
<g id="brooklyn">
	<g>
		<g>
			<path class="st1" d="M943,646.2c1.9-0.1,3.2-1,3.5-2.8c0.3-2.2-1.5-2.8-3-3.7c-1-0.6-2.8-1.4-1.9-2.9c0.7-1,2.4-2.3,3.8-1.1
				c3.2,2.8,4.3-0.5,6.3-1.7c-6.3-4.3-8.9-4.2-14.7,0.2c-2.3-0.3-1.3-1.8-1.1-3c0.2-0.8,0.3-1.6,0.6-2.4c0.3-1,1.3-2.2-0.7-2.6
				c-1.1-0.2-2.3-0.4-2.9,1.1c-1.4,3.6-4.8,5.8-6.8,8.9c-0.5,0.6-1.2,1.4-1.9,0.8c-1.1-0.8-0.8-1.9-0.1-2.9c2.3-4.3-0.4-6.8-3.4-8.8
				c-3.1-2.1-6.2-3.9-8.7-6.7c-2.9-3.3-4.2-7-3.8-11.3c1.1-1.5-0.6-3.6,1.1-5c9.5-7.5,19.3-14.7,28.3-22.8c3.1-2.8,4.3-7.9,6-12.1
				c2.8-6.6,5.3-13.4,7.9-20.1c1.7-4.4,7.4-8.7,10.6-8c6.6,0.8,13.1,0.1,19.7-0.3c0.8-0.1,1.5-0.4,2.2-0.8c4.2-0.8,7.2-3.9,10-6.5
				c3.2-2.9,4.7-3.1,6.3,1c0.3,0.8,1.1,0.6,1.7,0.4c1.3-2.2,0-4.7,0.8-6.9c2.5-13.2,9.2-24.5,15.3-36.2c2.4-4.6,2-10.1,0.3-15
				c-1.5-4.5-1-9.1-1.4-13.6c-0.1-1.8,1.1-2.3,2.2-2.9c2.5-1.5,5.1-2.8,7.6-4.2c4,0.1,8.1-1,12,0.9c3.5,1.4,7,3,10.5,4.3
				c4.8,1.8,8.3,4.5,9.8,10c2.2,8.1,9.6,10.1,16.5,11.5c4.9,1,7.5,3.4,9.1,7.8c2.3,6.3,4.8,12.7,7.3,18.9c0.4,1,0.1,1.4-0.4,2.1
				c-1.8,2.7-1,5.3,0.9,7.3c3.1,3.2,4.1,6.7,3.4,10.9c-0.3,1.6,0.6,2.8,1.7,3.3c3.9,1.6,6.7,4.8,9.9,7.3c2.5,1.9,5.1,3.1,6.1,7.8
				c1.1,5.3,4.4,11.6,11,14.1c2.1,0.8,4.2,2.3,2.2,5.2c-1.4,2,0.6,2.8,1.6,3.4c4.1,2.6,6.6,6.3,6.8,11.1c0.3,6,4.7,9.5,7.2,14.2
				c1.4,2.6,2.5,2.4,3.6,0c1.3-2.8,2.3-2.5,5-1c2.1,1.2,6,0,7.9-2.1c2.3-2.6,4.3-5.3,7.8-6c1.6-0.3,2.4-1.7,3.5-2.7
				c4-3.8,7.4-8.4,12.4-11.2c1.4-0.8,2.6-2,4-2.9c6.7-4.3,10.3-2.6,11.5,5.1c1,6.7,1.9,13.4,3.3,20c0.4,2-0.3,5.5,3.9,4.9
				c0.9-0.1,1.2,1,1.5,1.7c2.7,7.7,6.4,15.2,6.4,23.6c0,1.4,0.8,1.7,2,1.2c2.3-0.7,4.3-0.8,4.8,2.2c-0.4,4.5,2.2,8.6,2.1,13.1
				c1.6,2.5-0.3,3.1-2,3.8c-2,0.7-3.1,1.8-2,4.2c1.6,3.5,0.4,5.4-3.5,6c-1.5,0.2-2.9,1.4-4.4,2.2c-0.6,0.3-1.3,0.6-1.6,1
				c-0.3,0.5-0.4,1.7-0.3,1.8c4.9,1.6-2.2,6.3,2.4,8.4c2.6,1.2,4.3,4.1,6.6,6c2.6,2.2,2,4.6,0.8,7.1c-0.5,2.2-0.6,4.3,0,6.5
				c-1.1,3.7-6.6,5.7-9.3,3.3c-0.6-0.5-1-1.7-1.9-1.4c-4.9,2.3-9.8,2.5-15,1.2c-2.5-0.6-1.8,1.7-0.9,2.9c2.4,3.1,4.4,6.5,6,10.1
				c1,2.2,3.2,4.4-0.3,6.7c-3,2-4.7,7.1-9.8,3.8c-0.6-0.4-2-1.1-2.2-0.4c-0.8,2.6-4.3,3.2-4.7,4c-2.2,4.5-6.6,7-8.8,11.3
				c0.5,2.6-2.9,1.4-3.2,3.2c-2.2,3.2-4.9,5.8-8.7,7c-1.6,2.3,0.1,5-1.1,7.3c-1.9,3.3-4.8,1.9-7.4,1.4c-2.2-0.4-4.9-2.1-6.4,0.2
				c-1.4,2.2,0.5,4.7,1.7,6.8c4.7,7.8,9.5,15.5,14.1,23.3c0.5,0.8,2.3,1.2,1.1,2.8c-0.8,1.1-1.9,1.4-3.1,0.9c-3.7-1.6-6.5,0-9.2,2.3
				c-2.1,1.8-4.3,3.4-6.8,4.7c-1.3,0.7-2.8,2.7-2,4.7c0.7,1.9,2.8,1.6,4.4,1.5c5.2-0.3,10.5-0.8,15.7-1.2c4.5-0.4,7.4,0.3,9.1,5.7
				c4.5,14.3,8.9,28.7,14.8,42.5c2.4,5.6,0.7,10.6-4.1,11.9c-8.7,2.4-17.6,4.3-26.2,7.3c-5.8,2-9.8,1.1-12.8-4.2
				c-1.6-3.8,2.6-1.5,3.2-3.1c3.3-1.9,3.4-4.4,1.2-7.2c-2-2.6-3.5-5.4-4.6-8.5c-2-5.4-3.5-5.8-8.7-2.2c-1.5,1.1-3.5-0.1-5,0.9
				c-2.4,0-4.6,0.5-6.4,2.1c-1.4,1.3-2.4,2-3.9,0.2c-0.6-0.7-1.8-0.4-2.7,0.3c-1.2,1-0.8,1.9-0.1,3c1,1.7,1.7,3.6,2.6,5.3
				c0.5,0.9,2.3,1.6,0.8,2.8c-0.9,0.7-2.2,1.4-3.6,0.1c-1.1-1-2.9-3.3-3.3,0.7c-0.2,2.3-1.8,0.6-2.5,0.3c-5.8-2-11.6-4.1-17.4-6.2
				c-4-1.4-7.8-1.1-11.4,1.2c-1.6,1-2.4,2.2-2.1,4.1c-0.6,2-0.7,4,0,6c-0.1,6.8-0.3,5.8-7.2,7.4c-10,2.2-20.2,1.9-30.1,4.3
				c-1.1,0.3-2.3,0-3.4,0c-0.7,0-1.3-0.3-2-0.5c-3.2-0.2-6.5-0.3-9.7,0c-0.8,0.4-1.8,0.1-2.6,0.8c-11.9,3.2-24.3,4.1-36.3,6.8
				c-12.7,2.8-25.5,3.6-38.4,3.1c-1.6-0.9-3.5,0.1-5.1-0.7c-5.9-2.4-11.2-6.2-17.9-6.4c-1-0.2-1.8-0.5-1.1-1.7
				c-0.1-0.6-0.2-1.3-0.4-1.9c-2.5-7.5-0.3-11.4,7.5-13.2c0.6-0.1,1.4-0.3,1.8-0.7c2.6-2.6,5.3-2,8-0.4c2-0.6,3.9-0.5,5.9-0.1
				c5.2,1.4,10.5,2.7,15.7,4.1c3.4,1,4.5-1.8,5.4-3.7c1.2-2.5-1.7-2.2-2.9-2.7c-3.8-1.6-0.8-3.2-0.2-4.8c-0.5-1.4-0.6-1.5-3-0.8
				c-3.6-0.3-7,1-10.8-0.7c-2.8-1.3-3.6-3.2-4.6-5.4c-1.2-2.6,0.9-3.8,2.6-5c3.3-2.4,1.7-6.4,2.4-9.4c0.7-2.8-3.5,0.8-5.4-1.1
				c1.6-1.5,3.2-2.9,4.9-4.4c-0.3-0.4-0.4-0.8-0.6-0.9c-9.8-1.7-15.7-9.7-23.4-14.8c-3.6-2.4-7.2-5.1-11.9-5
				c-1.6,0.2-3.2,0.9-4.7-0.4c-2-2.8-5.3-2.4-8-2.7c-7.3-0.8-14.1-2.2-19.4-7.8c-0.8-0.9-1.7-1.7-3-1c-0.7,0.3-1.7,0.1-1.6-0.4
				c1.8-6.9-5.9-9.1-7.2-14.8c-1.8-8-4.2-15.9-5.3-24.1c-0.9-2,0.2-4.2-0.7-6.2c0.9-6,1.1-12.1,4-17.8c3.6-7,4.8-14.8,8.3-22
				c1.2-2.5,2.3-5.4,4-8c1-1.4,1.6-1.6,3.4-1.4c2.5,0.3,4.5-1.6,2.9-4.5c-0.9-1.7-0.5-2.7,0.8-3.8c1.1-1,1.9-1.4,3.5-0.8
				c5.3,2,5.1,1.9,5.6-3.9c0.1-1.4,1.2-3.2,3.4-3.6c3.1-0.5,4.4-1.9,1.1-4.3c-2.7-1.9-2-3.5-0.1-5.5c2.9-3,6.5-5.2,8.3-9.1
				c0.5-1,1.8-1.6,2.5-1c4,2.8,5.3-2,8-2.7c0.5-0.1,1.1-0.9,0.5-1.5c-2.9-2.6,0.5-3.5,1.5-4.2c3.1-2.2,6.2-5.8,10-0.4
				c1.7,2.4,4.6,0.1,6.9-0.4C940.1,646,941.7,646.8,943,646.2z"/>
			<path class="st2" d="M1215.3,743.8c1.1-1.8,2.4-3.5,3.4-5.4c1.5-2.9,3.2-4.3,6.6-2.5c1.1,0.6,3.7,2.4,3.3-1.5
				c2.1,0.1,4.1,0.3,6.2,0.4c1.8-0.1,1.9,0.7,1.1,2c-0.4,1.2-0.9,2.3-1.5,4.1c4.2-1.5,7.7-2.4,10.2,2.2c1.8,3.4,0.6,4.6-2.5,4.9
				c-9.7,1.1-17.8,5.8-25.9,10.7c-2.4,1.4-4.5,3-7.2,0.8c6.1-3.3,3-9.8,4.9-14.5C1213.7,744,1214.1,743.5,1215.3,743.8z"/>
			<path class="st2" d="M1181,763.2c1.5-4.9,2.9-9.2,4-13.5c0.7-2.8,2.2-4.7,4.5-6.2c2.9-1.9,5.7-4,8.7-5.8c1.3-0.8,2.3-3.1,4.1-1.7
				c1.8,1.4,3.2,3.3,2.6,6c-0.9,3.7-1.6,7.4-1.1,11.3c0.2,1.3-0.3,2.1-1.5,2.7C1195.8,759.6,1189.1,762.1,1181,763.2z"/>
			<path class="st2" d="M1246.1,770c3.3,0.6,5.7,4.2,9.8,2.3c-0.7,4.3-1.8,8.3-2,12.3c-0.4,7.1-5.8,8.7-10.9,10.7
				c-1.6,0.6-8.2-3.8-8.5-5.7c-0.5-2.8,2-3.4,3.8-4.2c2.8-1.2,2.9-3.3,2.5-5.7c-0.5-2.7-1.6-5.5,0.9-7.8
				C1242.8,770.5,1243.1,767.1,1246.1,770z"/>
			<path class="st3" d="M1196.8,837.9c-4-0.9-2.9-4.6-3.5-7.1c-0.6-2.4,1.3-4,3.1-5.3c1.5-1.1,9.6,2.8,11,5.2
				c2.7,4.7,2.9,9.4,0.1,14.1c-1.8,3-3.8,5.9-5.4,8.9c-0.8,1.4-1.8,2.8-3.3,2.6c-1.1-0.1-1.1-2-1.8-3c-3.7-5.9-0.1-10.1,2.9-14.6
				C1199.4,837.3,1199.2,837.2,1196.8,837.9z"/>
			<path class="st3" d="M1242.1,721.2c-0.4,0.3-0.9,0.6-1,1c-4.3,9.6-12.4,3.4-18.7,4.5c-1.4,0.3-1.5-1-1.2-2.1
				c1-3.8,1.7-7.8,5.6-9.9c2.1-1.1,4.1-2.5,6.2-3.7c0.7-0.1,1.3-0.3,1.9-0.4c3.5-0.7,6.9,0.2,8.9,2.9
				C1245.8,716.1,1243.7,718.8,1242.1,721.2z"/>
			<path class="st4" d="M1230.8,808.3c-0.4,2.6-1.9,4.8-4.5,5.2c-2.5,0.4-5,4.2-8,0.2c-1.8-2.5-4.8-4-7-6.3
				c-1.1-1.2-4.7-2.1-2.6-4.2c1.7-1.7,3.6-5,7.5-3c4,2,8.2,3.6,12.3,5.4C1229.7,806.1,1231.2,806.4,1230.8,808.3z"/>
			<path class="st5" d="M1225,772.1c1.7,4.1,5,1.2,7.5,2c0.2-1.5-1-2-1.3-2.9c-0.6-1.6,0.4-2.2,1.7-2.2c0.9,0,2.2-0.7,2.5,1.3
				c1.1,8-2.3,14.1-7.8,19.2c-1.7,1.6-3.6,1-3.7-1.4c0-3-1.4-4.9-3.1-7c-2.4-2.9-1.4-6.2,2.4-9
				C1223.7,771.4,1224.4,771.4,1225,772.1z"/>
			<path class="st6" d="M1251.9,740.6c-1.7-4.1-2.9-7.3-4.4-10.4c-0.8-1.6,0-2.6,0.8-3.6c0.8-1,1.9-2,3-2.5c2.8-1,5.9-4.2,8.5-1.9
				c2.7,2.5-0.9,5.2-2,7.7C1256.3,733.3,1254.3,736.4,1251.9,740.6z"/>
			<path class="st7" d="M914.1,640.8c-4.8-2.5-2.5-7.1-2.8-10.8c-0.1-1.5-1.9-4.4,0.2-4.5c2.8-0.2,1.2,3.1,1.6,4.7
				c0.6,3.1,0.1,6.4,1.9,9.3C915,640.2,914.7,640.6,914.1,640.8z"/>
			<path class="st8" d="M914.1,640.8c0.3-0.4,0.6-0.9,0.8-1.3c4.2,0.1,7.4-1.5,9.1-5.6c0.1,1.3-0.3,3.1,2.1,2.1
				C923.6,641,919.3,642.7,914.1,640.8z"/>
		</g>
	</g>
</g>
<g id="bronx">
	<g>
		<g>
			<path class="st9" d="M1296.2,263c-3.6-0.3-6.6,2.5-10.3,2c-1.3,0.7-3,0.8-3.9,2.2c-1.2,1.1-2.6,1.6-4.2,1.8
				c-3.2,1.2-6.7-0.2-9.9,0.8c-1.8,2-1.7,4.4-2.1,6.8c-0.4,2.5-0.8,5.2-4.5,5.4c-3.4,0.1-5.7-0.8-6.6-4.4c-0.5-2.2-1.2-4.4-2.4-6.4
				c-1.1-3.1-0.1-6.2-0.4-9.3c-0.3-0.9-0.3-2-0.7-2.9c0-0.4,0-0.7-0.1-1.1c1-1.9-0.3-4,0.8-5.9c1-2.9,3.7-6.2,2.3-8.7
				c-2.6-4.6-3.5-10.3-8.3-13.5c-0.1-0.1-0.3-0.2-0.4-0.2c0.1,5.4,0.7,10.6,3.4,15.4c0.1,0.3,0.1,0.6,0.1,0.9c1.3,2.3-1,3-2,4.2
				c-1.8,6.4-5.1,12.2-8.2,17.9c-0.6,0.6,0.1,2.6-1.8,1.9l0,0c-0.6-1.9-0.7-4.1-2.9-5c-1.3-0.9-2.7-1.8-4-2.8c-2-1.7-5.3,0.1-7-2.4
				c-0.4-0.4-0.7-0.7-1.1-1.1c-0.8-0.5,0.1-2.7-1.9-1.7l0.1-0.1c-0.8,2.2-1.3,4.3,0.8,6l0.2,0c2.4,2.8,6.1,1.5,8.9,3.1
				c3.3,1.6,3.6,3.6,0.8,6c-0.4,1.6-0.7,3.3,0.2,4.9c0.7,0.4,1.3,0.7,2,1.1c2.4,0.9,0.9,3.4,2,4.9c1.9,2.9,2.5,5.2-2.3,5.7
				c-2.2,0.2-4.4,1.2-6.6,1.8c-6.5,1.7-7.8,0.8-9.2-6.5c0.2-4.3,0.5-8.7-0.9-12.9l-0.5,0l-0.5,0c-0.3-0.3-0.6-0.6-1-0.8
				c-1-0.3-2.1-0.3-3.1,0c-0.4,0.2-0.7,0.5-1,0.8c-7.7,2.6-12.9-0.6-16.6-7.3c-3.1-5.6-9.5-5.5-14.4-7.8c-1.8-1.8-2.7-4.8-6-4.9
				c-3,4.2,2,5.4,3.1,8.1c1.6,0.8,3.4,1.1,5,1.9c1.8,0.7,4.4,0.3,5,3c3.2,1.3,3.9,4.7,5.9,7.1c1.4,3.1,2.7,6.2,4.2,9.3
				c0.7,1.4,0.1,2.6-0.6,3.7c-2.3,3.3-2.4,7.9-6.4,10.1c-1.2,0.7-2.6,1-4,1c-1-0.4-2-0.8-3-1.2c-0.5-2.8-2.7-2.3-4.6-2.4
				c-0.4-0.1-0.8-0.3-1.2-0.6c-3.1-0.5-6.5-2.5-9.1,1.2c-2.1,2.5-3.6,1.5-5.3-0.7c-2.3-3.1-2.8-7.4-6.8-9.2c-0.3-0.3-0.5-0.7-0.7-1
				c-6.3-0.3-12.6-0.2-18.9,0c-0.5,0.2-0.9,0.4-1.3,0.8c-1.1,2-1.9,3.9-4.8,4.3c-2.4,0.3-2.9,3-3.8,5.2c-1.7,4.1-3.6,8-7.5,10.6
				c-5,4.5-9.9,3.6-14.9-0.1c-1-0.7-2-1.3-3.1-2c-1.2-1.8-2.7-3.3-4.3-4.7c-1.2-1.5-2.8-2.6-4.6-3.2c-3.7,1.6-6.2,0.8-8.5-2.8
				c-1.7-2.7-3.8-5.2-4.7-8.3c-3.7-13.1-1.5-26.6-2.5-39.8c-0.9-3.1,0.2-6.4-0.7-9.5c-0.6,0.1-1.1,0-1.5-0.4c0-1.4,0-2.8,0-4.2
				c0.3-0.3,0.5-0.7,0.7-1.1c0.4-2.5-0.1-5.1,0.1-7.6c0-0.1-0.1-0.2-0.2-0.2c-0.2,0-0.3,0.1-0.5,0.1c-0.7-0.4-0.8-1-0.8-1.7
				c-0.2-2.1,0.4-4.3-0.4-6.4c2.6-6.3,5.2-12.6,7.9-18.9c0.1-0.2,0.6-0.1,0.9-0.2c1.1-4.6,5.3-7.9,5.1-13
				c9.4-15.7,17.5-32.2,29.9-46c2.4-3.9,3.8-8,2.5-12.6c-0.1-2.1,0.4-4.3-0.6-6.4c-0.6-2-2.6-2.6-3.9-3.7c-0.5-0.7-1.3-1.1-1.9-1.8
				c-3.2-1.6-6.5-2.6-10.1-2.4c-4.4-0.5-7-3.4-9-7c-2.2-1.6-1.9-3.6-1-5.8c1.5-4,2.8-8.1,4.2-12.1c0.5-1.6,2.1-3.1,0.9-5.1
				c2.2-8.4,4-16.8,6.9-25c0.9-3.3,2.5-6.4,2.1-10c-0.9-3.2,1.8-5.2,2.5-7.9c1.2-4,1.5-8,2.3-12c1.1-1.3,0.6-2.6,0.3-4
				c2.6-1,0.4-3.6,1.7-5c1.5-0.4-0.5-3.4,2.1-3c2.6,1.2,5,3,8.1,3c1.5,0.8,3.3,1.1,4.9,2c13.3,5.3,26.7,10.5,39.9,16
				c2.4,1,5.8-0.4,7.2,3c3.9,2.2,7.8,4,12.4,4.2c0.9,0.3,1.9,0.2,2.6,0.8c5.6,3.4,12.2,4.3,18,7.1c1.7,0.5,3.4,1.3,4.9-0.3
				c-0.1-0.3-0.1-0.5-0.1-0.8c2,2.1,1.5-0.6,1.9-1.1c1-1.3,2.5-2.2,2.9-4c0.3-2.6,0.3-5.4,3-7c2-0.9,3.8-3.5,6.3-0.9
				c2.4-1.8,4.7-1.4,7.2,0.1c1.5,0.9,3.2,1.4,4.8,2.1c0.8,0.9,0.1,2.2,0.8,3.1c3.9,0.2,6.3,2.5,8.1,5.7c0.2,1.5,0.9,2.7,1.8,4
				c0.8,1.3,2.4,3.3-0.7,4.1c-0.3,2.6-0.3,5.1,1.9,7c0.5,4.8,3.4,7,8.1,7c1.6,0.9,3.4,1.1,4.9,2c5.3,2.1,10.4,4.9,16.2,6.1
				c1.5,0.9,2.8,0.4,3.9-0.7c0.9-0.9,1.9-1.2,3-0.2c16.1,6,32.6,10.9,49,15.9c1.7,0.7,3.4,1.4,2,3.8c0,1.5-0.6,2.6-2.1,3.2
				c-1.8,0.2-1.3,1.9-1.9,2.9c1.9,3.5-1.7,5.9-1.8,9c-0.3,0.3-0.6,0.5-0.9,0.8c-0.7,0.7-1.3,1.5-1.6,2.5c-0.1,0.4-0.4,0.7-0.6,1
				c-4.2,1.3-4.6,5.5-6.2,8.6c-2.3,4.4-4.7,6.1-9,2.6c-0.5-0.4-1.2-0.4-1.9-0.5c-0.4-0.6,0.4-0.4-0.2-0.3c-0.4,0.1-0.3,0.4,0.1,0.3
				c0,1.5,0.7,2.6,2.1,3.1c3,1,1.9,4,3.1,5.9c5-3.4,2.5,3.4,5.2,3.6c3.3-4.4,6.8-8.8,8.8-14.3c0.6-1.7,1.5-3.5,3.2-4.2
				c4-1.5,4.2-4.9,4.6-8.2c2.1-2.3-1.1-4.6,0.1-6.9c1.4-2.1,3.4-3.6,5.5-4.7c1.5-0.8,2.1,0.1,1.5,1.6c0.3,0.2,0.5,0.5,0.7,0.8
				c0.1,0.3,0.3,0.7,0.5,0.9c3.7,0.2,7.9-0.4,7.9,5.2c-0.2,3.6-5,5.9-3,10.2c0.3,0.3,0.7,0.5,1.1,0.7c5,0.9,5,0.9,2.8,6.1
				c-0.4,1-1,1.7-2.1,1.9c-2.6-1-4.2,0.8-6,2c-1,0.4-2,0.8-3,1.2c-0.8,2-0.6,4-0.1,5.9c-0.2,0.3-0.5,0.6-0.7,0.9
				c-1.2,2.2-0.6,4.6-0.3,6.9c-2.4,6.3-4.8,12.6-10.3,17.2c-2.5,2.1-4.9,5.5-2.8,8.6c3.3,4.8-1.9,5.9-3.1,8.6
				c-0.5,1.1-2.2,0.1-2-0.8c0.3-2.3-2.1-2.9-2.5-4.6c-1.7-2.3-3-4.7-3.8-7.4c-0.5-0.4-1-0.8-1.4-1.3c-0.2-0.4-0.2-0.8,0.1-1.2
				c-0.9-2.3-1.6-4.7-0.1-7c1-2.7,1.2-5.3,0-8c-1.6,0.4-3.2,0.7-4.8,1.1c-0.8,0.9-1.1,2.6-2.9,2c-1.8-7.3-7.8-9.7-13.9-12
				c-1.5-1.8,0.3-2.8,0.9-4.2c-0.2-1.5,1.4-1.9,2-2.9c-1.4-1.3-2.7-2.8-3.1-4.5c-2.2,0.1-2.5,3.1-4.8,2.3c-0.7-0.6-1.4-1.3-2.1-1.9
				c-0.6-1.1-1.6-2-1.9-3.3c-0.6-6.3,1.1-12.5,1-18.8c-0.2-1.5,0-3,0.8-4.4c1.6-2.6,0.5-5.6,1.2-8.4c0.3-1.3,0.4-2.6,0.1-3.8
				c-0.3-0.9-0.1-2.1-1.4-2.4c-0.4,0-0.7,0.1-1,0.2c-0.5,0.3-1,0.6-1.2,1.1c-0.3,3.7-0.2,7.5-1.6,11.1c-0.6,1.4,0,2.5,0.5,3.7
				c0.2,0.8,0,1.7-0.3,2.4c-2.2,6-4.1,12-1.2,18.3c0.5,1.1-0.6,2.3,0.1,3.4c0.4,1,0.7,2,1.1,3c0.9,0.5,1.6,1.1,1.8,2.2
				c0.5,2.8-0.4,5.6,0.7,8.3c0.4,0.8,0.9,1.6,1.2,2.4c1.1,2,2.1,4,3.2,6.1c0.3,0.2,0.5,0.5,0.5,0.8c3.1,0.4,5.5,1.3,3.4,5.1
				c-4.1,2.5-6.6,5.4-2.1,9.8c2.4,2.3-0.3,4.8,0,7.2c3.5,5.1,0.1,11.5,3.2,16.8c0.8,1.3-1.4,2-1.8,3.2c-0.1,0.6,0,1.2,0.2,1.8
				c0.4,1.2,1,2.3,1.3,3.6c0.1,2.2,1.9,4.4,0.3,6.6c-0.3,0.3-0.6,0.7-0.9,1l0,0c-0.4,0.3-0.6,0.7-0.8,1.1
				c-0.3,6.5,0.7,12.9,2.2,19.2c0.4,1.7,1.1,3.5,2.6,4.8c2.5,1.5,3.4,3.4,1.2,5.9c-1.4,1.9-0.6,4-0.6,6c0,1.4,1,1.9,2.4,1.1
				c2.4-0.1,4.1-1.9,6.1-2.9c3.2,0.2,4.2,2.2,4.6,5.2c0.3,2.3-0.2,5.1,2.3,6.8c0.1,1.4,0.8,2.4,2.1,3c1.4,3.9,5.9,1.4,8,4
				c1.4,1,2.8,2,4.2,2.9c0.3,0.2,0.4,0.5,0.3,0.7c-0.1,0.2-0.2,0.4-0.3,0.4c-1.4,1.7-2.7,3.3-4.1,5c-1.7,0.5-2.5,3.2-5,2
				c0.5-1,0.6-2-0.1-3c-1.2-1.9-1.6-4.7-4.9-4c0.4,4.5,2.6,8.3,4.9,12.1c1.1,1.4,0.9,2.8-0.5,3.8c-1.4,1-2.4-0.1-3.5-0.9
				c-2.4-1.8-3.7-5-7-5.8c-2.5-2.4-6.1-1.5-9-2.9C1299.7,262.5,1297.6,264.3,1296.2,263z"/>
			<path class="st10" d="M1158.1,330c-2.7-2.5-2.9-6.7-6-9.1c-0.4-0.3,1.5-3.9,0-6c2.1-1,1.3-2.9,1.5-4.4c0.1-0.4,0.4-0.7,0.7-0.9
				c1.3-1.6,1-4.1,2.8-5.5c0.3,0,0.8-0.2,1,0c6.1,4.8,14,6,20.5,10c1.8,1.1,3.8,2.2,3.4,4.9c-0.2,1.4,0.8,1.7,1.9,1.1
				c1.9-1,2.5,0.2,3.4,1.6c1.8,2.8,5.2,5.8,3.5,8.7c-1.7,3-5.9,4.1-9.8,3.5c-0.4-0.3-0.7-0.5-1.1-0.7c-3.4,0.3-6.5-1.7-9.9-0.9
				c-0.5,0.1-0.9,0.1-1.3-0.2c-1.5-1.1-3.3-0.3-4.9-0.9C1162.1,329.8,1159.8,331.2,1158.1,330z"/>
			<path class="st11" d="M1362,197c1.6,3.2-0.7,5.8-2.6,6.5c-5,1.7-3-3.5-4.4-5.5c-0.9-1.5-2-2.7-3.8-3.1c-0.2-1.9,0.6-4.2-2.2-5
				c-1.3-1.7,0.7-4.4-1.8-5.7c-2-3.6-3.2-6.9-0.6-11.2c2.3-3.9,0.3-8.8-2.3-11.7c-4.2-4.7-2.2-7.8,0.9-11.3c3.3-1.2,1.7,2.2,2.8,3
				c0.3,0.4,0.7,0.7,1,1.1c2.4,2.2,1.2,5.4,2,8.1c1.4,2.6,1.8,6,5.7,6.5c1.3,0.2,1.2,1.8,1.6,2.9c2.3,5.4,3.5,10.9,0.7,16.6
				c0.9,1.4,2.1,2.6,3,4l0-0.1C1362.7,193.6,1362.7,195.3,1362,197z"/>
			<path class="st12" d="M1310,267.1c0.1-1.2,0.5-2,1.7-0.9c1.9,1.8,3.8,3.7,5.6,5.6c3,3.1,3.7,1.4,3.7-1.7c1.4,1,2.8,2.1,4.1,3.1
				c2,0.6,4,0.6,6,0c4,2.5,8.1,4.9,11.9,7.6c1.6,1.1,4.2,2.7,2.3,5.1c-1.9,2.5-4.3,1.6-6.3-0.4c-4-3.9-10.2-4.3-14-8.5
				c-1.7-2.9-4.9-0.5-7.1-1.9C1314.9,272.7,1312.3,270.1,1310,267.1z"/>
			<path class="st13" d="M1388,159.9c-0.4,0.4-0.8,0.8-1.2,1.2c-0.3,0.5-0.6,1-0.7,1.5c-0.2,2,0,3.9-0.2,5.9c-0.1,1-0.2,2.2-1.3,2.4
				c-1.1,0.2-1.6-0.9-2.1-1.8c-0.9-1.4-1.7-2.8-1.6-4.6c0.3-4.9,0-9.9,0.1-14.8c0-1.6,0.3-3,2-3.6c3,3.3,6,6.7,9,10
				c0.9,1.4,0.2,2.2-1.2,2.3C1389.6,158.5,1388.6,158.8,1388,159.9z"/>
		</g>
	</g>
</g>
<g id="manhattan">
	<g>
		<g>
			<path class="st14" d="M963,349c5.5-10.2,11.1-20.4,16.6-30.7c6.6-12.4,12.8-25.1,19.7-37.4c4.5-7.9,9.1-15.7,12.8-24
				c0.3-0.7,0.5-1.3,0.7-2c1.7-1.1-0.3-2.5,0.2-3.7c1.9-2.8,2.6-6.3,6.7-7.5c3.9-1.1,6.3-5,7.7-8.3c6.2-15.1,13.3-29.9,17.6-45.7
				c0.4-1.4-0.1-2.5,0.2-3.7c0.2-0.6,0.4-1.2,0.6-1.8c0.2-1.2,0.2-2.4,0-3.6c-0.2-0.3-0.5-0.5-0.9-0.6c-0.7-0.6-0.8-1.3-0.5-2.2
				c0.2-0.8,0.1-1.6,0.5-2.4c0.3-1.4,0.3-2.9-0.1-4.3c-0.1-0.4,0-0.8,0.3-1.1c0.6-0.3,1.3-0.6,1.9-0.9c1.7-0.3,2.9-1,2.3-3.1
				c6.5-11,13-22,19.6-32.9c3.6-5.9,3.5-12.6,4.6-18.9c1-5.5,7.8-11.8,12.6-10.3c2.1,0.7,4.3,1.3,5.7,3.2c4.7,2.9,10.3,3.8,15.3,6
				c1,0.9,2.5,1.2,2.8,2.8c0.2,2.8,0.5,5.5-0.8,8.2c0.5,4.1-1.7,7.1-4.2,9.9c-1.3,1.1-2.5,2.3-3,4.1c-4.7,7.5-9.7,14.8-14.1,22.4
				c-7.8,13.5-14.1,27.8-19.6,42.4c-0.6,1.6-1.6,2.8-2.3,4.3c-0.4,0.6-0.6,1.2-0.8,1.8c-1,3.8-0.2,7.6,0.1,11.4
				c0.1,0.4,0.2,0.9,0.2,1.3c-0.1,0.2-0.1,0.4-0.2,0.7c-0.3,2-0.2,4.1-0.3,6.1c0.4,0.1,0.7,0.2,1,0.5c1,1.6,1.2,3.2,0.8,5
				c-0.2,0.4-0.4,0.8-0.6,1.2c-0.2,2.2-0.2,4.5,0,6.7c0.2,0.4,0.4,0.8,0.7,1.1c0,0.3,0.1,0.7,0.1,1c0.2,0.2,0.3,0.5,0.3,0.7
				c0,0.3,0,0.4-0.1,0.4c-0.3,1.3-0.3,2.5-0.1,3.8c0.2,0.4,0.4,0.7,0.7,1.1c0.1,0.3,0.1,0.6,0,1c-0.3,0.4-0.6,0.8-0.7,1.3
				c0.4,4.6-0.2,9.1-0.2,13.7c0,0.5,0,1-0.1,1.4c-0.4,1.7-1,3.4-0.3,5.2c0.2,0.4,0.4,0.7,0.6,1.1c0.2,0.4,0.2,0.8,0,1.2
				c1.3,6.2,6.3,10.5,8.4,16.3c0.7,1.9,1.6,3.6,1.2,5.7c-0.2,0.3-0.5,0.7-0.6,1.1c-0.3,1.9-0.1,3.8,0.9,5.5c0.2,0.4,0.4,0.8,0.4,1.3
				c-0.2,1.4,0.5,2.9-0.6,4.1c-7.8,5.9-14.4,12.6-17.4,22.4c-0.5,1.7-2.4,3.1-3.7,4.6c-1.3,1-2.4,2.1-3.8,3
				c-3.3,3.7-4.1,7.4-1.4,12.1c3.1,5.4,1.1,10.6-2.6,15.1c-8.6,10.6-15.3,22.5-23.7,33.2c-7.4,9.5-13.1,20-20.5,29.4
				c-3.5,4.5-5.4,10.2-8.1,15.3c-0.9,1.5-0.1,3.3-0.5,4.8c-0.8,3.5,0,7.1-0.7,10.6c-0.1,0.5-0.4,0.9-0.7,1.2c-0.3,0-0.6,0.1-0.8,0.3
				c-1.4,0.8-0.2,2.3-0.9,3.3c-0.4,2.3-0.4,4.5,0,6.8c0.2,0.4,0.5,0.7,0.9,0.9c5.1,3.3,4.4,8.2,3.7,13.1c-0.3,0.3-0.6,0.5-1,0.5
				c-0.3,1.2,0.3,2.3,0.2,3.4c0.1,0.4,0.3,0.8,0.5,1.1c0.2,0.8,0.2,1.5-0.6,2c-0.3,0.3-0.5,0.6-0.8,0.9c-0.5,1.1-0.1,2.4-0.5,3.5
				c-0.2,0.4-0.3,0.8-0.5,1.1c-0.4,1.4-0.3,2.9,0,4.3c0.2,0.4,0.1,0.8-0.3,1.1c-1.2,5.7-3.1,11.2-5,16.7c-0.9,2.5-3,2.2-4.6,3.2
				c-1.8,1.2-3.7,2.1-5.6,3.1c-1.8,1.3-4.1-0.4-5.8,1.1c-0.5,0.7-1.2,0.8-1.9,0.6c-0.3-0.2-0.7-0.4-1.1-0.6
				c-1.2-0.1-2.5-0.4-3.5,0.7c-0.3,0.4-0.6,0.6-1.1,0.6c-2.2,0.6-3.7-0.7-5.2-2c-1.7-0.7-3.6-0.2-5.4-0.6c-0.2,0-0.3-0.1-0.4-0.2
				c0,0.2,0,0.3,0.1,0.5c0,0.4-0.1,0.7-0.4,0.9c-0.5,0.7-1.2,0.8-2,0.6c-0.3-0.2-0.7-0.4-1.1-0.5c-1-0.2-2-0.2-3,0.1
				c-0.3,0.2-0.7,0.5-0.9,0.8c-1.7,2.7-4.9,3.2-7.2,5c-0.4,7.2-4.7,11.3-10.9,14.1c-3.6-2.2-5.8,2.6-9.1,1.9
				c-0.3,0.3-0.7,0.4-1.1,0.3c-1.4-0.5-2.9-0.1-4.3-0.5c-0.4-0.1-0.7-0.3-1.1-0.5c-0.7-0.6-1.3-1.4-2.4-1.2c-2-1-2.5-2.9-1.6-4.5
				c2.3-3.7-1-2.4-2.3-2.9c-0.6-2.5,0.3-5-0.4-7.5c-0.2-0.5-0.1-0.9,0.2-1.3c0-0.3,0-0.6,0.1-0.9c2.1-1.4,1.7-2.7,0-4.1
				c0-0.7,0-1.4,0-2c0.4-0.4,1-0.5,1.4-0.8c0.8-1.2,0.4-2.5,0.3-3.7c-0.2-0.4-0.2-0.8-0.2-1.3c0.2-0.4,0.4-0.8,0.7-1.1
				c0.7-0.9,0.8-1.9,0.5-3c-0.2-0.4-0.4-0.8-0.6-1.1c-0.1-1.1-0.3-2.1,0.7-2.9c0.3,0,0.6,0,1-0.1c0.4-1.3,0-2.7,0.2-4
				c0.1-0.4,0.2-0.8,0.3-1.2c0.7-1.6,0.6-3.3,0.7-5c0.1-0.4,0.2-0.8,0.3-1.2c0.8-1.9,0.7-3.8,0.1-5.7c-0.1-0.7-0.1-1.4,0.3-2
				c1-1.4,1.2-4,4.1-2.7c1.3-0.3,2.6,1.2,3.9-0.1c0.4-0.2,0.7-0.5,0.9-0.8c0.5-1.6,0.4-3.2,0-4.8c-0.2-0.4-0.3-0.8-0.3-1.2
				c-0.1-1.7-0.6-2.9-2.6-3.4c-1.4-0.3-3.2-0.8-3.6-2.8c1-1.3,2-2.6,3.8-2.7c1.3,0.5,2.2,0.3,2.1-1.3c0.4-0.4,1-0.6,1.5-0.5
				c0.9-1.2,0.3-2.4,0-3.5c-0.3-0.3-0.6-0.7-0.9-0.9c-1.3-1.2-4.2-0.6-3.9-3.6c0.3-2.8,2.1-3.4,4.4-3.6c0.4-0.2,0.7-0.4,1.1-0.6
				c0.8-0.8,0.8-1.7,0.5-2.7c-0.2-0.3-0.5-0.4-0.9-0.5c-1.5-4.1-5.1-7.4-5-12.1c0.3-0.2,0.5-0.5,0.8-0.7c0.5-1,0.3-2,0.1-3
				c-0.2-0.4-0.1-0.8,0.2-1.2c0.1-3.7,0.7-7.1,3.8-9.9c1.2-1.1,2.6-3.4,0.1-5.1c-0.7-1.5,0.6-2.7,0.8-4c0.6-2.2,2.7-3,4.3-4.2
				c1.5-1.8,4.6-3.6-0.2-5.4c-1.3-0.5-0.5-2.3-0.8-3.5c1-1.1,2.5-1.6,3.1-3c0-2.4,0.7-4.9,3.5-3.8c2.9,1.2,3.3-0.9,4.5-2.2
				c-1.4-1.1-2.8-2.1-2.9-4c2.2-5,4.4-9.9,6.7-14.9c0.6-1.4,1.1-2.4,2.7-0.6c0.8,1,2.5,0.6,4.3,0.2c-2.2-3-4.5-5.9-0.8-9.4
				c1.3-1.2,2.1-2.5,4-2.2c2.5,0.3,3.6-1.1,4.3-3.1c0.4-1.3-1.6-2.5-0.2-3.8c-0.3-1.7,1-2.8,1.8-4c0.6-1.9,3.5-0.8,3.8-3.1
				C961.8,350.9,962.1,349.8,963,349z"/>
			<path class="st15" d="M1089.1,341c-2.1,1.3-4.1,2.7-6.2,4c-4.2,2.5-7-1.7-10.4-2.7c-1.1-0.3-2-1.5-3.5-1.2c-0.4-0.3-0.7-0.6-1-1
				c-2.2-2.3-0.1-4.7-0.2-7.1c2.7-4,3.3-9.4,8.1-11.9c2.4,0.1,2.2-1.5,2.1-3.1c1.7-2.5,4.9-4.2,3.9-8c0.3-0.3,0.5-0.6,0.8-0.8
				c0.3-0.3,0.5-0.6,0.7-0.9c0.4-1.2,0.4-2.3,0-3.5c-0.2-0.4-0.3-0.7-0.6-1c-0.1-0.2-0.2-0.3-0.3-0.5c-0.9-3.1,1.3-5.4,2.1-8.1
				c1.3-2.7,3.6-0.8,5.4-1.3c1.7,1.7,3.3,3.5,5.3,5c4.6,3.4,8.1,7.5,9.5,13.1c0.7,1.6,0.8,3.2,0,4.9c-7.9,5.8-12.6,13.5-14,23.2
				C1089,340,1088.9,340.1,1089.1,341z"/>
			<path class="st15" d="M909,583.1c-3.1,2.3-6.3,4.6-9.3,7.1c-1.6,1.3-3.3,2.1-5.4,1.8c-3.6-0.4-4.9-2.4-3.1-5.6
				c1-1.7,0.2-4.5,2.9-5.3c1.8,0.4,2.1-1.3,3-2.2c2-2.3,4-4.6,6-6.9c1-1.5,2.5-2.3,4.2-2.8c0.7-0.1,1.4-0.1,2.1,0
				c3.1,0.6,5.5,2.5,7.6,4.7c0.5,2.6,0.1,5-2,6.9c-1.4,1.3-3.3,0.8-4.9,1.3C909.6,582.5,909.3,582.8,909,583.1z"/>
			<path class="st16" d="M1052.9,368c0.9-1.1,1.9-3.3,3.2-2.4c1.7,1.2,1.1,3.7,0,5.4c-5.1,7.9-10.2,15.8-15.4,23.5
				c-2,3-4.5,5.7-6.8,8.5c-2.2,0.1-1.1-2.2-2.1-3c2-5,5.7-8.9,8.5-13.4c3.3-5.1,7.9-9.5,9.5-15.6
				C1050.5,369.7,1051.8,368.9,1052.9,368z"/>
			<path class="st17" d="M1031.9,400c1.9,0.2,1.3,2,2.1,3c-3.5,6.3-7.9,11.9-13.1,17c-1.6,0-1.5-0.8-0.9-1.8
				c1.4-5.1,5.2-8.8,8.1-12.9C1029.3,403.5,1030.2,401.5,1031.9,400z"/>
			<path class="st18" d="M868.9,556.6c-2.4,1.3-4.7,3-7.4,3.9c-0.9,0.3-4.1-1.1-3.1-2.8c1.5-2.4,4.1-4.3,6.6-5.7
				C865.6,551.7,868.2,554.1,868.9,556.6z"/>
		</g>
	</g>
</g>
<g id="queens">
	<g>
		<g>
			<path class="st19" d="M1452,365.1c2.9,1.3,4.6,4,7,6c1.4,1.1,2.6,2.5,4.3,3.2c1,0.5,1.8,1.2,2.8,1.7c1.6,1.4,3.2,2.7,4.9,4.1
				c0.6,1.3,1,2.9,3,2.2c2.1,1.1,3.5,3,5.1,4.7c1,0.8,2.1,1.5,2.7,2.7c0.8,1.4,1.9,2.3,3.4,2.6c0.6,0.3,1.1,0.7,1.4,1.3
				c1.2,1.5,2.3,3,4.3,3.6c0.7,0.3,1.3,0.7,2,1c0.5,1.5,1.3,2.7,3,3c6.3,3.1,10.6,8.8,16.1,12.9c1,0.9,2.2,1.5,2.5,3
				c2.2,1.1,2.6,3.7,4.3,5.1c0.3,1.7,1.6,3.3,0.1,5c0,0.2,0,0.4,0,0.7c-0.1,1.2,0.1,2.5-0.3,3.7c0,0.1-0.2,0.3-0.2,0.4
				c0.1,0,0.2-0.1,0.3-0.1c0.3-0.3,0.7-0.6,1.2-0.5c1.4,1.1,0.7,2.6,0.6,4c-0.1,0.4-0.2,0.9-0.4,1.3c-0.6,1.9,0,3.9-0.5,5.9
				c0,0.2-0.1,0.3-0.2,0.4c0.2,0,0.3,0,0.5-0.1c0.4,0,0.7,0.1,0.9,0.4l-0.1-0.1c0.8,1.1,0.4,2.4,0.4,3.6c-0.5,2.5-1.1,5,0.3,7.5
				c-0.8,2.3-2.1,4.3-3.8,6.1c-2.3,2.6-4.3,5.3-4.4,9c-2.5,4-3.5,9.1-7.7,12c-0.8,0.6-1.9,0.5-2.8,0.8c-2.3,0.2-4.7,0.2-7,0.8
				c-1,0.6-2.1,0.7-3.2,1.2c-4.5,2.3-9.4,3.3-14.1,5c-2.1-1.5-3.4,0.3-4.9,1.3c-0.1,0.1-0.2,0.3-0.3,0.4
				c-10.3,5.7-10.3,5.7-6.8,16.9c0.7,2.2,1.3,4.4,1.9,6.6c-1.8,2.4-0.1,4.2,0.9,6.1c1.4,1.4,1,3.2,1.2,4.9c0.9,4.2,0.2,8.5,0.4,12.8
				c0,3,0,6,0,8.9c0.1,7.4-0.5,14.9,0.3,22.3c0.3,0.5,0.5,1,0.6,1.6c0.1,3.1,0,6.2,0,9.3c0,3.6,0,7.3,0,10.9c0,0.6-0.1,1.1-0.2,1.6
				c-0.7,5.9,0.4,11.9-1.2,17.7c-0.4,2.3-0.7,4.6-1.1,6.9c-0.2,0.3-0.5,0.6-0.8,0.7c-0.3,0.1-0.7,0.3-1,0.5c-0.1,3.3-0.2,6.7-0.3,10
				c-0.1,0.5-0.2,0.9-0.4,1.3c-0.1,2.9-1.3,5.8,0.3,8.7c0.4,0.6,0.8,1.2,1.2,1.8c0.8,1.7,0.7,3.1-1.2,3.9c-0.5,1.5-0.7,2.9,0.8,4.1
				c1.4,3,2.8,6,4.2,9.1c-0.3,0.4-0.5,0.7-0.7,1.1c-0.2,2.3-0.1,4.5,0.5,6.7c0.2,0.4,0.4,0.7,0.6,1.1c0.1,0.4,0.1,0.8,0.1,1.2
				c-0.1,1.1-0.6,2.3-0.2,3.5c0.1,0.4,0,0.8-0.2,1.1c-4.3,2.9-8.8,4.9-14,5.2c-1.5-0.9-2.6,0.1-3.8,0.7c-1,0.8-2.1,1.5-3.5,1.5
				c-2.1,0.9-4.3,1.8-5.8,3.7c-1.1,1-2.1,2-2.9,3.2c-0.3,0.1-0.6,0.1-0.9,0.1c-0.3,0.3-0.6,0.6-0.8,0.9c-0.4,2.2-0.4,4.3,0.2,6.4
				c0,0.9,0.2,1.8-0.4,2.6c0,1.3-0.1,2.6-0.1,3.9c-1,0.8-2.1,1.6-2.8,2.6c-2.4,3.1-7.1,3.5-8.9,7.4c-0.2,0.3-0.5,0.5-0.8,0.7
				c-0.7,1.4,0,3.1-0.6,4.5c-0.2,0.4-0.4,0.8-0.7,1.2c-3.4,0.9-6.2,3.5-9.9,3.7c-1.6,0.9-3.7,0.7-5,2.3c-3.6,1.9-7.2,3.8-10.8,5.7
				c-1.5,0.5-2.4,1.7-3.2,3c-1.8,2.1-2.3,5.7-6,6c-0.3,0.3-0.6,0.6-0.8,1c-0.1,1.2-0.6,2.3,0,3.4c0.4,0.1,0.6,0.2,0.8,0.5
				c1.3,1.6-0.1,2.6-0.9,3.8c-1.1,1.6-2,3.3-1.4,5.3c5.3,5.8,4.7,10.3-1.7,13.3c-1,0.1-2.1,0.3-3-0.3l0.1,0
				c-0.3-0.3-0.5-0.5-0.7-0.8c-1.1-0.4-2.1-0.3-3.2-0.1c-0.4,0.2-0.8,0.4-1.2,0.6c-3.2-0.4-4-1.8-2-4.6c2.2-3,4.4-5.7,5.5-9.6
				c1.6-6.2,1.2-9.8-3.4-13.4c-1.5-1.7-3.8-2.2-5.7-3.2c-8.7-3.8-17-8.1-23.5-15.3c-1.3-0.3-2.5-0.7-3.5-1.6
				c-4.3-4.7-10.4-6.6-15.5-10.2c-1.7-1.2-3.9-1.7-4.9-3.9c-1.4-1.6-3.3-2.4-5-3.6c-1.6-0.7-2.9-2.3-5-1.7c-2-0.7-3.9-1.7-5-3.7
				c-1.4-1.5-3.1-2.5-5-3.1c-6.6-2.2-12-6.5-18-9.9c-2.4-1.1-4.9-0.2-7.4-0.5c-4.2,2.3-5.9-2.1-8.7-3.4l0.1,0c-1.7-1-3.1-1-3.8,1.2
				c-0.3,3.8-3.1,3.6-5.8,3.8c-0.4,0.2-0.8,0.2-1.2-0.1c-3.3-1-4.9,0.3-3.7,3.6c2.3,6.3,2.4,6.3-4.5,6.2c-1.1,0-2.1-0.6-3.2-0.2
				c-0.9,0.1-1.8,0.2-2.7,0.2c-0.4-0.2-0.7-0.4-1.1-0.6c-1.2,0-2.6-0.9-3.7,0.5c-0.2,0.4-0.5,0.6-0.9,0.7c-1.5,0.3-3.1-0.6-4.5,0.6
				c-1.3,0.9-2.6,1.7-3.7-0.1c-0.4-3.1-3.5-5.5-2.2-9.1c0.2-0.7,0.4-1.3,0.8-1.9c0.5-2.2,3.8-3.6,1.5-6.4c-1.7,0.4-3.4,1.8-5.4,1.6
				c-0.4,0.3-0.8,0.3-1.3,0.2c-2.9-0.5-3.6-3-4.8-5.2c-0.6-0.4-1.3-0.8-1.9-1.2c-1.1-1.2-2.3-2.3-3.8-3c-1.7-2.2-4.4-3-6.2-5.2
				c-1.9-2.4-2.5-3.8,0.8-5c1.8-0.7,3.6-1.6,5.4-2.5c1.8,0.4,3.9,1,2.8-2.2c-0.8-0.4-0.8-1.1-0.7-1.9c-0.3-2.3,0.6-4.1,2.6-5.2
				c1.3-0.5,2.7-1,1.3-2.8c0-1-0.1-2-0.1-3c0-2.7-1.1-5.2-1-7.9c-0.7-2.1-1.3-4.2-2-6.3c-0.6-0.9-1.5-1.5-2.6-1.7
				c-3.4-1.4-2.9-4.7-3.7-7.3c-0.5,0.3-1.1,0.4-1.6,0.1c0.1-1.4-0.6-2.9,0.8-3.9c1-1.2,0.3-2.5,0.3-2.8c-0.3-1.7-0.9-0.8-0.2-1
				c0.3-0.1,0.4,0.3,0.4,0.7c-0.1,0.5-0.1,0.9-0.5,1.2c-1.8-0.7-2-2.3-2-4c-0.9-1.5-2.2-2.7-3.1-4.2c-1.1-0.8-0.9-1.9-0.7-2.9
				c0.7-1.5,0.1-2.4-1.3-3c-3.6-2.8-2.5-7.5-4.1-11c-0.5-0.6,0.1-1.7-0.9-2c-0.6-2.6-1.1-5.3-1.7-7.9c0.2-0.4,0.4-0.7,0.6-1.1
				c0.1-1.7-0.1-3.4-0.6-5c-0.6-1.3,0.1-2.9-1-4.1c-1.1-0.3-2.2-0.9-3.3,0.2c-1.7,2-4.1-0.5-6,1c-1.3,0.7-3,0.7-4,2.1
				c-2.3,3.9-7.3,3.9-10.1,7c-2,3-5.3,4.9-7,8.1c-2,1.2-4,2.5-6,3.7c-3.5-0.8-2.6,2.7-4,4c-1.2,0.1-2.4,0.1-3.5,1
				c-1.9,1.7-3.4,1.1-4.6-1c-0.9-1.8-1.9-1.7-2.9-0.1c-1,3-1.9,6-4.7,1c-0.8-1.5-2.2-2.7-3.3-4c-1.1-1.8-1.5-3.9-2.2-5.9
				c-0.5-1.6-1.1-3.3-1.6-4.9c0.6-1.9,0.6-3.8-0.8-5.4c-1-0.8-1.4-2.6-3.3-2c-1.1-1.2-4.6-0.3-3.1-3.6c0.6-1.3,2.6-2.2,1-4
				c-0.4-0.2-0.7-0.3-1.1-0.5c-0.9-1.4-2.3-1.9-3.7-2.5c-1.3-3.1-5.6-2.8-7-6c1.7-2,3.3-3.9-0.6-5.3c-1.4-1-2.8-2-0.7-3.7
				c0-1.3-1.8-0.9-2.1-1.9c-0.3-1.6-1.1-2.8-2.8-3.2c-6.2-3.6-13.4-6.3-14-15.1c-1.1-2.2,0-5.2-2.4-7c-1.3-1.3-1.6-3.1-2.2-4.8
				c-0.2-0.4-0.3-0.8-0.4-1.2c0.7-1.2,2.4-2.2,1-3.9c0-0.2,0-0.4,0-0.6c-0.2-1.2-0.1-2.4-0.5-3.6c-0.2-0.3-0.4-0.6-0.7-0.9
				c-0.3-0.2-0.6-0.5-0.9-0.7c-2-5.5-5.3-10.5-6.8-16.2c0.1-1.6-0.2-2.9-2.2-2.7c-4.6-2.5-10.2-2.3-14.7-5.2
				c-4.4-2.9-7.6-6.6-8.8-11.9c-0.5-2.4-2.1-3.8-4.6-4.2c-1.3-2.2-3.6-2-5.7-2.3c-0.4-0.1-0.8-0.2-1.2-0.5c-3.5-2.9-7.5-4.7-12-5.3
				c-0.3-0.3-0.7-0.5-1.1-0.6c-1.7-0.2-3.3-0.3-5,0.1c-0.4,0.2-0.7,0.5-0.9,0.8c-2,1.8-4.6,2.6-7,3.7c-2-1-1.5-3.2-2.2-4.8
				c-1.2-0.8-0.9-2-0.8-3.1c0.4-0.4,0.9-0.6,1.4-0.9c0.8-1.9,0.6-3.9,0.3-5.8c-0.2-0.5-0.1-0.9,0.2-1.2c3.8-7.4,7.9-14.7,13.3-21.1
				c2.1-2.5,3.9-5.2,5.5-7.9c5-8.2,10.7-15.9,15.3-24.3c2.5-4.6,5.8-9.4,11.9-10.6c3-1.4,3-1.4,3.1-4.9c-1.2-2.9-6.9-2.5-5.3-7.6
				c1.3-4.3,4.3-7.6,6.9-11c1.1-1.4,4,0.2,5,1.9c2.7,4.5,5.5,3.5,8.5,0.6c1.9-0.6,3.4-1.8,4.8-3.2c2.8-1.1,4.1-3.9,6.5-5.4
				c2.1-1.3,3.3-3.3,4.6-5.2c0.3-3.4,4-4.3,5.2-7c1.6-0.6,2.5-1.9,3.4-3.3c1.3-0.9,1.8-2.4,2.4-3.8c0.7-0.3,1.3-0.6,2-1
				c2.1-0.5,3-2.5,4.5-3.8c0.7-0.7,1.5-1.1,2.4-0.4l0.2,0c-0.1,2.3,2.7,1.3,3.3,2.8c1.3,2,2.3,4.2,4.7,5.3c1.4,0.9,2.2,0.2,2.9-1
				l-0.1-0.2c1.2-1,2.5-2,4.1-2.5c1.7,1.6,3.4,3.1,5.1,4.7c0.6,0.6,1.3,1,1.8,1.7c1.2,0.9,2.6,1.7,2.7,3.5c-0.3,1.9-3,2.8-1.8,5.2
				c2.9,1,1.4,5.9,5.3,6.1c1.7,2.3,4.2,4,5.8,6.5c-1,2.7-3.3,5.5,0.9,7.6c0.3,0.2,0,1.2-0.7,1.6c-0.7,3.7-0.6,3.9,3,2.8
				c0.4-0.5,0.8-0.9,1.1-1.4c0-0.5,0.3-0.8,0.8-0.9c2.8-0.1,5.7,1.3,8.2-0.8c0.1-0.4,0.2-0.8,0.3-1.2c0.3-1.4,0.3-2.8-0.7-4.1
				c-0.2-0.4-0.3-0.8-0.3-1.2c0-0.2,0-0.4,0-0.6c0.1-1.1,0.7-2.2-0.4-3.2c-0.1-0.1-0.3-0.3-0.4-0.4c0.3-2.4,0.9-4.6,4.1-3.8
				c0.4,0.2,0.7,0.4,1.1,0.6c0.8,0.2,1.5,0.2,2.3,0.1c0-0.4-0.1-0.7-0.2-1c0.3-0.3,0.6-0.6,0.9-0.9c0.4-0.5,1-0.7,1.7-0.7
				c1.4,0.2,2.7,0.7,4.1,0.2c0.4-0.2,0.7-0.3,1.1-0.5c0.8-0.4,1.5-0.6,2.4-0.4c0.6,0.2,1.2,0.5,1.7,0.7c2.1,0.6,4.2,0.9,6.3,0.2
				c5.9,2.5,10.1,7.6,15.9,10.3c1.4,0.5,2,1.8,2.9,2.9c2.4,2.4,5.9,3.3,8,6.2c1.9,1.4,1.5,3.2,1,5c0.1,1.5-0.7,2.4-2,3
				c-1.7,3.7-5.2,4.1-8.6,4.5c-0.5,0.4-0.5,0.9-0.3,1.5c0.6,1.7,1.7,3.1,2.7,4.6c1.4,2,2.8,4,3.2,6.5c0,0.3,0.1,0.6,0.1,0.9
				c2.2,2.2,3.9,4.9,7,6c0.6,0.1,1.3,0.1,1.9,0.2c2.5,0.4,5.3,0,7.3,2.1c5.3,0.8,9.9-0.3,12.9-5.2c0.3-0.6,0.7-1.2,1.3-1.6
				c2.6-2.1,5.3-4.2,6.5-7.5c0.8-1.1,1-1.9-0.8-2c-0.4-0.1-0.8-0.2-1.3-0.4c-2.6-0.5-5.4-0.3-7.8-1.6c-5.1-1.9-7.2-5.7-6.7-11
				c-0.4-2,0.5-3.5,1.7-4.9c0.3-0.3,0.7-0.7,1-1c0.1-2.3,0.5-4.7,0.1-7c-0.1-1.6-0.1-3.3-0.2-4.9c-2.6-2.7-1.7-6.2-2.1-9.4
				c-0.2-0.4-0.5-0.6-1-0.7c-2,0-3.9-0.1-5.9-0.1c-6.1,0-8.2-1.7-9.9-8c2-1.2,4-2.4,5.9-3.8c4-0.4,5.6-3.2,4.6-6.4
				c-0.7-2.3-0.8-4.5-1.4-6.7c0.2-0.4,0.4-0.7,0.6-1.1c0.5-2.6,2.3-2.1,4.1-1.8c0.8,0.3,1.7,0.3,2.5,0.8c3.5,0.5,5.2-2.5,7.8-4
				c2.2-1.6,4,0.9,6.1,0.6c2.9,0.2,1.6-2.5,2.5-3.7c-0.2-2.3,0.7-3.2,3-2.6c0.9,1.4,1.1,3.2,2.9,3.8c1.3,3.3,2.5,6.1,1,10.2
				c-1.5,4.2,3.5,5,6.4,6.4c2.9,1.4,3.4-0.4,4-2.9c0.4-1.5,1.7-3.1,3.9-4c3.9-1.4,5.3-5.5,3.6-8.6c-2.5-4.5-1.1-5.3,3-5.6
				c0.5,0,0.9-0.4,1.3-0.6c2.7,1.2,4.2-0.7,5.8-2.2c0.1-0.3,0.2-0.7,0.4-1c1.1-2,2.5-3.6,4.6-4.6c3.4,0.5,6.4,1.9,8.6,4.6
				c1.3,1.7,3.2,2.7,5.3,3c1.9-0.6,3.6,0.1,5.2,0.9c4.8,2,10,1,15,1.9c1.6,1.2,3.3,0.7,5,0.3c1.9,0.4,3.9,0.6,5.7,1.2
				c2.6,1,5.5,3.1,4.1,5.7c-2.9,5.4,0.8,6.3,4.1,7.9c0.4,0.1,0.9,0.3,1.3,0.4c3.6,0.5,7.2,0.5,10.9,0c0.4-0.2,0.9-0.2,1.3-0.3
				c2-0.1,3.9-0.1,5.9-0.1c2,0,3.1-0.8,2.8-3c1.9-2.4,1.4-5.2,0.4-7.6c-0.8-1.9-0.2-3.1,0.7-4.5c2.6-0.5,5.2-0.2,7.8,0
				c4.6,2.5,5.7,7.5,7.8,11.7c0.8,1.6,1.7,3.4,2,5.4c0.4,2.4-1.5,3.5-2.7,5c-2.6,1.1-3.1,2.4-1,4.7c4.8,5.4,8.9,11.2,12.6,17.3
				c1.4,0.6,1.2,1.8,1.2,2.9c1,3.6,2.1,7.2,3.1,10.8c0.6,1.2,1.4,2.2,2.5,3c0.7,2.3,3.6,2.8,4.2,5.1c-0.3,1.2-0.2,2,1.3,1.8
				c2.8,2.9,5.5,5.9,9.9,6.4c0.6,0.3,1.2,0.7,1.7,0.1c0.6-0.8,0.1-1.5-0.5-2.2c1.9-2.6-1.5-4.6-0.8-7.1c1-1.3,0.7-3.2,1.9-4.4
				c1.8-1.6,1.7-3.6,0.8-5.6c-4-5.1-1.7-17.6,3.7-21.3c1.7-1.2,2.3,0.2,3.3,1c1.4,1.1,2.7,2.2,4,3.4c0.9,0.9,2.1,1.4,2.7,2.6
				c1,1.2,2,2.2,3.6,2.6c1,0.5,1.8,1.2,2.8,1.7c1.6,1.4,3.3,2.8,4.9,4.1c0.5,1.6,1.5,2.7,3.1,3.1c0.6,0.3,1.1,0.7,1.5,1.2
				C1449.5,363.7,1450.4,364.8,1452,365.1z"/>
			<path class="st19" d="M1379.9,786.9c-0.8,2-2,3.9-2.3,6c-0.8,4.9-3.6,7.9-8,9.7c-1.2,0.5-2.1,1.6-3.1,2.4c-1,0.9-2.1,1.9-0.6,3.3
				c1.1,1,1.7,3.1,3.9,2.1c1.9-0.8,3.2-2.1,4.3-3.9c1.1-1.9,1.4-5.4,3.9-5.2c2.3,0.2,1.3,3.7,2.3,5.4c0.8,1.3,1.4,3.1,3.5,3.2
				c1.8-0.7,3.5-0.6,5.3,0l-0.1,0c1.5,0.3,3.2,1.9,4-0.9c-1-1-2-2.1-2.9-3.1c-0.2-0.2-0.4-0.5-0.4-0.8c0-0.3,0-0.4,0.1-0.4
				c0.3-2.3,0.4-4.5-0.1-6.7c-0.2-0.4-0.6-0.7-1-0.9c-0.7-2.7-2.5-5.4,0.2-8.1c0.3-0.3,0.6-0.6,0.8-1c0.5-1.7,0.2-3.4,0.2-5.1
				c0-0.4-0.1-0.8-0.2-1.3c1.3-1.8-0.2-2.5-1.3-3.5c-2.5-2-4.9-4.1-7.3-6.2c2.1-3,5.4-1.6,8.2-2.1c0.1-0.4,0.3-0.7,0.6-0.9
				c4-1.1,7-0.7,9.1,3.7c1,2.1,3.8,3.8,6.9,3.4c1.6,1.1,3.6-0.1,5.2,0.9c0.3-0.1,0.5-0.1,0.8,0c1.8,0.7,2.9,2.6,5,2.7
				c2.8-1.5,5.5-3.1,8.3-4.4c7.7-3.8,10.3-2.5,12.6,5.8c-0.2,1.2-0.4,2.3,1,3c0.9,4.4,5.8,5.9,7.2,9.9c2.7,2.8,1.8,6.4,1.9,9.7
				c0.1,1.9-0.1,3.9,0.2,5.8c0.2,0.6,0.2,1.1-0.1,1.6c0,0.6,0,1.2,0,1.8c0.5,4.7-2.4,3.7-5.2,3.1c-4.9,1-10,0.9-14.7,3.7
				c-2.8,1.7-5.1,4-8.1,5.3c-0.2,0-0.4,0-0.6,0c-2.1,0.1-4.3-0.2-6.4,0.2c-0.4,0.2-0.7,0.5-1,0.7c-1.8,1.5-3.9,0.7-5.9,0.7
				c-0.4-0.2-0.8-0.4-1.3-0.6c-4.5-0.3-9,0-13.5,0c-0.5,0.1-0.9,0.3-1.3,0.5c-1.3,0-2.6,0-3.8,0c-0.3-0.5-0.5-1.1-1-1.4
				c-1.7-0.4-3.4-0.3-5.1-0.1c-0.4,0.2-0.7,0.5-1.1,0.8c-6,1.6-12,3.4-18,4.9c-36.6,9.6-73,19.9-108,34.5c-0.9,0.4-1.9,0.5-2.9,0.8
				c-1.7,0.4-3.2,1-4.1,2.7c-11.1,6-22.3,12.1-33.4,18.1c-1.9,1-3.7,1.4-5.5,0c-1.2-0.9-2.1-0.7-2.4,0.9c0,3.2-3,3.1-4.9,3.9
				c-17,7.3-34.8,12.5-51.9,19.3c-6.3,2.5-12.8,0.3-18.8,2.9c-0.2,0-0.4,0-0.7,0c-1.8,0.1-3.6-0.4-5.4,0.4c-0.3,0.3-0.7,0.6-1,0.8
				c-5.8-1.2-10.5,2.3-15.6,3.7c-12.4,3.4-24.9,6.6-36.8,11.4c-2.8,1.1-3.8,0.4-4.6-2.4c-1.3-4.6-1.1-9.3-0.7-13.8
				c0.2-2.6,2.6-4.7,5.2-5.9c6.4-3.2,14.1-2.8,20.2-6.9c1.4-0.9,3,0.7,4.8,0.7c6-0.2,11-2.8,15.6-6.4c4-3.1,7.4-3,11.5,0.2
				c2.9,2.3,7.1,4,10.5,1.2c2.5-2.1,5,1.3,8-1.7c2.5-2.5,5.8-5,8.8-7.4c2.1-1.1,4.3-2.1,6.7-2.1c0.5-0.2,0.9-0.1,1.3,0.2
				c7.2-0.7,14.5-1,21.7-2.1c2.9-0.5,5.6-2.6,8.2-4.3c15.3-10,30.9-19.6,45.3-30.8c1.8-0.5,3.6-0.8,4.9,1c1,0.1,2,0.1,3,0.2
				c0.3,0.3,0.5,0.5,0.8,0.8c4.4,0.2,8.8,0.3,13.3-0.2c0.4-0.2,0.7-0.6,0.9-1c5.1-1.6,10.2-3.5,15.4-4.6c5.2-1.1,7.1-7.6,12.6-7.3
				c11.5,0.8,17.4-9.3,26.5-13.4c2.6-1.1,4-4.8,6.1-7.3c1.2-1.4,2.1-4,4.5-1.3c1.3,0.5,2.7,1.6,3-1c-1.9-2.3-2-4.7-0.1-7
				c1.1-1.2,2.7-0.8,4-1.1c0.4-0.1,0.7-0.3,1.1-0.5c0.6,0.2,1.2,0.4,1.8,0.6c1.1-0.7,2.3-0.4,3.5-0.4c2.3,0.5,4.7,0.8,7,0.2
				c0.1-0.3,0.3-0.6,0.5-0.9c2-1.1,4-2.2,6-3.3c1.6,0.6,1.7,2.1,2,3.5c0.4,2.8-1.5,4.9-2.2,7.3c-0.7,2.3,0.8,3.7,2,4.3
				c1.5,0.8,3.1-0.3,3.2-2.4c-0.5-1.8-0.7-3.6,0.1-5.3c3.3-4.7,6.6-9.4,9.8-14.2c0.2-0.3,0.7-0.6,0.6-0.7c-3.5-6.4,4.9-7.8,5.3-12.7
				c0.2-2.4,2.1-3.9,4.5-3.6c2.8,0.3,6.6-1.6,7.8,3.1C1381,783.6,1380.2,785.2,1379.9,786.9z"/>
			<path class="st20" d="M1289.2,727c0.9,0.3,0.8,1.2,0.8,1.9c1.6,1,3.4,1.6,4.4,3.4c0.9,1.6,0.4,3.3,0.7,4.9c0,2.7,2.2,4.3,3.5,6.5
				c-1.8,1.9-4.3-0.6-6.2,1.3c1.1,2.6,0.7,6.8,6,5c1.1-0.4,2.3,0.5,2.5,1.9c0.3,1.8-0.4,3.7-1.8,4.3c-4.8,2.1-3.7,5.5-2.4,9
				c2.2,6,1.7,12.8,6.1,18.1c1,1.2,0.8,3-0.7,4c-4.1,2.9-4.3,7.4-5.2,11.8c-1.3,6.5-2.7,13.1-9.7,16.2c-2.2,0.6-4.4,0.8-6.7,1.1
				c-0.4,0.2-0.9,0.3-1.3,0.3c-0.4,0-0.7,0-1.1,0c-0.4-0.2-0.8-0.4-1.2-0.5c-3.2-0.3-6.5,0.2-9.8-0.5c-0.4-0.1-0.8-0.3-1.1-0.6
				c-1.9-3.5,1-4.9,3.1-5.3c3.9-0.7,7-2.8,10.7-3.8c0.2,0,0.4,0.1,0.7,0.1c1.3,0,2.6,0.2,3.9-0.2c0.6-0.4,1.5-0.8,0.8-1.8
				c1.6-4.3,3-8.5,2.2-13.3c-0.4-2.8,3.1-4,4.3-6.3c-5.1-3.6-7.8-8.7-9.3-14.9c-3.2,2.1-6,1-8.6-1.5c-3.3-3.2-6.9-2.2-8.9,2.1
				c-0.5,1.1-0.4,3.3-2.7,2.7c-1.6-0.4-2.1-1.9-1.8-3.1c0.8-3-2.1-2.9-3.2-4.2c-0.7-0.8-2.5-0.6-1.9-2.3c0.4-1.4,1.3-2.3,3-2
				c1.6,0,4.5,2.1,3.8-2.1c-1.3-2.6-2.9-5.1-1-8.1c0.3-0.3,0.6-0.6,0.8-0.9c0.4-1.2,0.2-2.4,0.2-3.6c0-0.2,0-0.4-0.1-0.6
				c0.6-0.6,1.2-1.2,1.9-1.9c0.4-0.2,0.7-0.5,0.9-0.8c0.5-1,0.3-2.1,0.3-3.1c0-0.4-0.1-0.8-0.2-1.2c2.4-7.7,6.4-15.2,3.8-23.7
				c0.4-2.5,0.6-5.1,4.3-3.9c3.3,4,7,2.1,10.6,0.7c0.8-0.5,1.7-0.5,2.5,0.1c3.7,2.1,5.2,5,3.3,9.1c-0.4,0.2-0.7,0.4-1,0.8
				c-0.6,1.4-0.5,2.9-0.1,4.3C1288.5,726.5,1288.8,726.8,1289.2,727z"/>
			<path class="st20" d="M1328.1,774c1.7-5.6,3.9-11,7.2-15.9c2.4-3.5,4-7.5,5.6-11.5c1.7-4.1,4.4-4.9,8.5-3
				c3.7,1.7,5.6,3.8,7.4,7.9c2.1,4.8,4.8,10.2,9.9,13.4c1.8,1.1,2.2,2.7,0.5,4c-3.8,3.2-6.7,7.5-12.1,8.3c-2.1,0.1-2.9,1.9-4.3,3.1
				c-1.4,1.2-2.5,2.7-4.6,2.5c-0.4-0.1-0.8-0.4-1.2-0.7c-2-3.1-5.4-4.5-8-7C1334.2,773.6,1330.9,775.4,1328.1,774z"/>
			<path class="st21" d="M1319.9,756c-2.4-4.1-5.4-8.4-2.4-13.1c3.1-4.9,8.6-7.1,13.6-9.5c2.4-1.1,4.6,1.3,4.6,4.2
				c0.1,3.4-1.3,6.4-3.3,9.1c-1,1.3-2,2.6-2.3,4.3c-0.2,1.5,0.5,3.2-2.3,1.4c-1.5-1-0.4,1.6-0.9,2.4c0.3,0.4,0.4,0.8,0.3,1.2
				c-0.4,1.7-0.4,3.4,0.1,5.2c0.1,0.7,0.1,1.3-0.4,1.9c0.2,1.9-0.7,3.6-1.9,4.9c-1.3,1.4-2.9,1.8-3.1-1c0.6-1.7,1-3.4-0.3-5
				c-0.3-0.2-0.6-0.4-0.8-0.5C1320,759.8,1321.2,757.6,1319.9,756z"/>
			<path class="st21" d="M1257.1,831.9c-1.2-2.3-2.2-4.7-1.3-7.5c0.4-1.2,0.7-2.4-0.6-3c-1.5-0.8-2.5,0.3-3.1,1.5
				c-0.7,1.2-1.4,2.3-3,1.9c-1.6-0.8-3.3-0.5-4.9-0.2c-0.9-5,2.4-8.7,8.9-9.7c2-0.7,4-0.8,6,0c2.2,3.1,4.6,5.5,8.4,6.9
				c5.1,2,0.8,5.4,0.3,8.2c-2.4,3.5-6.1,1-9.1,2C1258,832.4,1257.5,832.3,1257.1,831.9z"/>
			<path class="st20" d="M1327,793.8c-1.8-0.2-3.8-0.1-4.1-2.7c-0.3-0.4-0.4-0.8-0.2-1.2c0.4-1.9,0.4-3.9,0-5.8
				c-0.1-0.4,0-0.8,0.3-1.2c-0.1-0.3,0-0.6,0.2-0.8c1.4-0.5,2.4-1.5,2.9-2.9c0.3-0.1,0.6-0.2,0.8-0.2c0.3-0.3,0.7-0.4,1.2-0.3
				c1.5,0.4,2.9,0.3,4.4,0.2c0.2,0,0.4-0.1,0.6-0.1c5.1,1,7.2,4.6,7.9,9.4c0.3,2.3-0.1,4.3-2.8,4.9
				C1334.5,794.2,1330.7,792.8,1327,793.8z"/>
			<path class="st22" d="M1303.8,743.8c-1.6-4.9-3.2-9.7-4.9-14.6c-0.6-1.7-0.8-3.5,0.1-5.2c7.1,3.4,10.7,11.9,8,19.5
				c-0.2,0.4-0.1,1-0.1,1.5c-0.4,0.4-0.8,0.6-1.4,0.7C1304.5,745.5,1303.5,745.4,1303.8,743.8z"/>
			<path class="st23" d="M1308.9,798c0.6,1.2,1,2.4,1.1,3.8c0.1,2.5,1,5.6-2.1,6.4c-2.9,0.7-3.3-2.4-4.2-4.5
				c-0.5-1.3-1.6-2.4-2.5-3.6c1.1-1.2,0.6-2.9,1.5-4.1c0.9-1.2,1.9-2.5,3.6-2.3c1.7,0.3,1.5,1.9,1.9,3.2
				C1308.3,797.2,1308.6,797.6,1308.9,798z"/>
			<path class="st24" d="M1268.4,781.1c3.2,0.3,3.8,3.2,3.8,5.7c-0.1,5-5.4,2.5-7.7,4.6c-1.1,1-2.3-0.4-2.4-2
				C1261.9,786.9,1265.9,781.3,1268.4,781.1z"/>
		</g>
	</g>
</g>
<g id="staten_island">
	<g>
		<g>
			<path class="st25" d="M688.9,967.8c2.1-2.8,4-5.7,6.2-8.3c7.7-9.2,5.4-16.1-6.3-18.8c-1.6-0.3-3.3-0.8-4.8,0.3
				c0.2,4-2.8,2.7-4.9,2.9c-1.2,0.6-3.1,0.6-2.7,2.7c0.4,2.1-1.2,2.6-2.5,3.4c0,2.9-0.1,5.9-0.1,8.8c-0.8,1.5-0.2,3.2-0.4,4.7
				c-0.3,0.7-0.8,1.1-1.6,1.1c-0.2,0-0.4,0-0.5,0.1c-8.9,12.2-23.5,16.8-34.9,25.7c-4.6,3.5-9.8,6.2-14.7,9.2
				c-3.6,2.2-8.6,0.8-11.6,4.5c-1.4,1.7-3.2,2.9-5.2,3.8c-1.7,0.7-3.5,0.6-5.2,0.1c-2.7-0.4-6.1-3.5-7.1,2
				c-8.3,2.5-10.2,11.1-15.6,16.4c-0.9,0.9-2.1,1.6-2.1,3.2c-0.1,3.2-3.1,3.5-4.6,3.1c-3.8-1-8-1.9-9.4-6.6
				c-2.9-1.4-5.9-0.8-8.9-0.4c-4.6,2.9-9.5,4.8-12.3,10.6c-2.2,4.8-8.5,7.1-10.6,12.7c-0.3,0.9-2.2,1.5-3.4,1.8
				c-6,1.1-11.3,4.1-18.3,2.5c-7.3-1.6-14.9,0.8-19,9.1c-1.8,3.6-6.6,4.1-10.5,4.4c-14,0.8-14.1,0.7-21.1-12.2
				c-1.8-3.4-2.9-7-3.8-10.7c-1.2-4.9,1.2-8.6,4-12.1c2.6-1.4,0.5-4.2,1.8-5.9c0.3-5.5,5.1-6.9,8.9-8.8c1.6-0.8,3.2-1,4-2.8
				c0.9-2.1,2.1-3.4,5-2.6c1.8,0.5,4.5-0.3,3-3.2c-4.6-8.8-3.5-17.5-0.6-26.4c2.1-6.6,0-11.8-5.7-15.2c-1.6-1-1.4-2.7-1.1-3.3
				c3.1-5.4-1.1-9.3-3.1-13.4c-0.9-1.9-1.5-2.9,0.1-4.5c2.9-3.1,4.3-7.2,10.4-7.3c3.6,0,7-5.1,9.5-8.7c1.6-2.2,3-3.7,5.6-5
				c3.4-1.7,5.9-5.2,8.9-7.8c0.6-0.5,1.4-0.7,2.2-1.1c2-0.4,4-0.7,5.9,0.3c2.7,1,5.4,2,8,3c1.9,1.1,4.1-0.3,6,0.9
				c7.1-2.2,10.8-7.7,13.8-14c1-1.8,1.3-3.5-0.7-4.9c0.6-8,3.4-15.4,5.9-22.9c0.9-2.7,3-3.6,6-2.6c4,1.3,7.5,0.2,10.1-3.4
				c0.6-2.3,1.8-4.4,1.6-6.9c0.1-2,0-4.2,2.5-5.1c4.6-1.1,7.6,2.3,11.4,3.7c-3.8-1.7-5.9-7-11.3-5.1c-3.2,1.2-3,4.3-3.9,6.8
				c-0.2,1.2-0.4,2.4-1.5,3.1c-2.3,2.6-9.5,4.4-12.1,3.1c-1-0.5-1.3-1.1-1-2.3c0.8-3.5,0.9-7.1,2.3-10.4c1.3-1.5-0.2-3.5,1-5.1
				c1.6-5.9,3.6-11.8,0.6-17.9c-0.7-1.5,1-2.7,1.2-4.1c-0.9-1.7,0.2-2.7,1.2-3.8c2.3-2,3.5-4.9,5.4-7.2c3.7-3,5.5-6.9,6.1-11.5
				c0.3-2.6,1-5.2,1.5-7.7c0.6-3.2,0.8-6.6-2.7-8.6c-0.7-0.1-1.4-0.3-2.1-0.7c-2.3-2.5-0.5-3.6,1.6-4.5c1.7-5.3,3.3-10.7,5.2-15.9
				c1.3-3.5-0.4-7.5-3.9-8.1c-6.8-1.1-6.9-1.8-7.4-8.6c-0.8-9.5,0.5-18.7,3.1-27.8c0.2-0.8,0.1-2,0.6-2.3c7.5-5.6,10-15,16.2-21.6
				c1.6-1.7,3-4,6.1-2.5c0.4,0.2,1,0.3,1.1-0.4c0.4-4.1,1.1-7.8,6.7-5.4c0.9-3.7,4.1-1.7,6.1-2.4c2.1-0.8,3.3-0.9,3.3,2
				c0,3.7,1.8,2.6,3.6,1c3.1-2.8,6.2-5,10-0.9c1.6,1.8,0.7,4.3,2.4,5.9c1.6,1.9,3.3-1.4,5,0.1c3.7-0.2,7.4,0.1,11,1.1
				c1.4,0.5,2.1,2.5,4,2.1c2,1.2,4.3,0.5,6.3,1c1.6,0.3,3.7,0.6,4.3,2.2c1.3,3.7,3.1,4.2,6,1.6c0.2-0.2,0.5-0.4,0.8-0.5
				c3.7,6.4,5.1-0.4,7.6-1.3c1.6,0.9,3.5-0.2,5.1,0.8c4.2-3.1,10.3-2.4,13.8-7.1c0.8-1.1,2.5-0.9,3.8-0.8c6.3,0.4,12.7,0.1,18.2,4
				c2.4,0.7,4.8,0.8,7.2-0.1c2.3-0.5,4.5-1,5.1-3.8c0.1-0.4,0.5-1,0.8-1.1c7.7-1.9,14.1-7.6,22.3-8.1c2.9-0.2,5.9-0.5,8.8-0.8
				c1.6,0.9,3.5-0.2,5.1,0.8c1.8-0.1,3.9,1.2,5-1.3c1.6-0.3,3.2-0.3,4.8,0.1c6.4,1.2,9.9-3.9,14.3-6.8c1.8-1,3.9,0.1,5.7-0.8
				c0.7-0.1,1.3-0.1,2-0.2c1.5,1.1,3.4,0,5,0.7c3.7-1.2,7.4-1.5,11.1,0.3c2.5,0.8,0.6,3.7,2.3,4.9c3.6,1.8,7.8,2.8,9.8,6.9
				c0.7,1.6,0.7,3.5,1.3,5.1c0.2,1,0.3,2-0.2,3c0,0.4-0.1,0.7-0.1,1.1c1.1,2.2-0.2,4.7,0.8,6.9c0,5.7,0.5,11.3,0,16.9
				c-0.7,7.6,1.9,14,5.8,20.1c1.6,2.5,3,4.8,0.6,7.6c4.2,0.4,6.3,2,4.5,6.2c-0.2,0.4-0.3,1-0.1,1.4c5.4,8.1,8.3,17.8,16.6,23.9
				c7.2,5.3,7.2,5.3,3.8,13.7c-1.4,3.5-2.9,7-4,10.6c-2.7,8.8-6.7,16.1-15.3,20.9c-4.7,2.7-6.5,8.5-8.9,13.4
				c-0.4,0.7-0.6,1.6-1.2,2.2c-13.1,12.3-24.4,26.3-37.8,38.4c-0.9,0.8-2.1,1.1-3,1.8c-3.4,2.3-5,6-7.1,9.4
				c-2.9,4.7-4.3,10.9-11.9,11c-2.6,0-2.9,4.1-4.5,6.2c-1.5,1.9-2.3,4.4-3.4,6.6c-0.9,1.9-2,3.6-4.5,2.5c-1.5-0.6-2.2,0.4-2.9,1.2
				c-3.7,3.6-7.5,7.1-9.8,11.8c-2.8,5.6-7.8,9.3-13,11.6c-5.8,2.6-9.2,6.9-13.1,11.3c-5.6,6.5-10.2,13.9-16.9,19.4
				c-1.6,1.3-4.1,4.4-5.7,2.1c-1.9-2.9-6.6-5.3-4-10.2c0.4-2,1.7-2.4,3.6-2.5C683.4,968.4,686.3,969.2,688.9,967.8z"/>
		</g>
	</g>
</g>
</svg>
